<?xml version="1.0" encoding="UTF-8" standalone="no"?>
<!DOCTYPE svg PUBLIC "-//W3C//DTD SVG 1.1//EN"
 "http://www.w3.org/Graphics/SVG/1.1/DTD/svg11.dtd">
<!-- Generated by graphviz version 5.0.0 (20220707.1540)
 -->
<!-- Title: dependencies Pages: 1 -->
<svg width="605pt" height="174pt"
 viewBox="0.00 0.00 605.00 173.80" xmlns="http://www.w3.org/2000/svg" xmlns:xlink="http://www.w3.org/1999/xlink">
<g id="graph0" class="graph" transform="scale(1 1) rotate(0) translate(4 169.8)">
<title>dependencies</title>
<polygon fill="white" stroke="transparent" points="-4,4 -4,-169.8 601,-169.8 601,4 -4,4"/>
<text text-anchor="middle" x="298.5" y="-8.2" font-family="sans-serif" font-size="14.00">dependencies</text>
<g id="clust1" class="cluster">
<title>cluster_AuthModule</title>
<polygon fill="none" stroke="black" stroke-dasharray="1,5" points="8,-32.8 8,-157.8 589,-157.8 589,-32.8 8,-32.8"/>
</g>
<g id="clust6" class="cluster">
<title>cluster_AuthModule_imports</title>
<polygon fill="none" stroke="black" points="433,-40.8 433,-92.8 581,-92.8 581,-40.8 433,-40.8"/>
</g>
<g id="clust2" class="cluster">
<title>cluster_AuthModule_declarations</title>
<polygon fill="none" stroke="black" points="16,-40.8 16,-92.8 425,-92.8 425,-40.8 16,-40.8"/>
</g>
<!-- LoginComponent -->
<g id="node1" class="node">
<title>LoginComponent</title>
<polygon fill="#ffffb3" stroke="black" points="417.27,-84.8 302.73,-84.8 302.73,-48.8 417.27,-48.8 417.27,-84.8"/>
<text text-anchor="middle" x="360" y="-62.6" font-family="Times,serif" font-size="14.00">LoginComponent</text>
</g>
<!-- AuthModule -->
<g id="node4" class="node">
<title>AuthModule</title>
<polygon fill="#8dd3c7" stroke="black" points="335.55,-149.8 332.55,-153.8 311.55,-153.8 308.55,-149.8 248.45,-149.8 248.45,-113.8 335.55,-113.8 335.55,-149.8"/>
<text text-anchor="middle" x="292" y="-127.6" font-family="Times,serif" font-size="14.00">AuthModule</text>
</g>
<!-- LoginComponent&#45;&gt;AuthModule -->
<g id="edge1" class="edge">
<title>LoginComponent&#45;&gt;AuthModule</title>
<path fill="none" stroke="black" d="M319.19,-84.91C319.19,-84.91 319.19,-103.79 319.19,-103.79"/>
<polygon fill="black" stroke="black" points="315.69,-103.79 319.19,-113.79 322.69,-103.79 315.69,-103.79"/>
</g>
<!-- LogoutComponent -->
<g id="node2" class="node">
<title>LogoutComponent</title>
<polygon fill="#ffffb3" stroke="black" points="284.77,-84.8 163.23,-84.8 163.23,-48.8 284.77,-48.8 284.77,-84.8"/>
<text text-anchor="middle" x="224" y="-62.6" font-family="Times,serif" font-size="14.00">LogoutComponent</text>
</g>
<!-- LogoutComponent&#45;&gt;AuthModule -->
<g id="edge2" class="edge">
<title>LogoutComponent&#45;&gt;AuthModule</title>
<path fill="none" stroke="black" d="M266.56,-84.91C266.56,-84.91 266.56,-103.79 266.56,-103.79"/>
<polygon fill="black" stroke="black" points="263.06,-103.79 266.56,-113.79 270.06,-103.79 263.06,-103.79"/>
</g>
<!-- SignupComponent -->
<g id="node3" class="node">
<title>SignupComponent</title>
<polygon fill="#ffffb3" stroke="black" points="145.51,-84.8 24.49,-84.8 24.49,-48.8 145.51,-48.8 145.51,-84.8"/>
<text text-anchor="middle" x="85" y="-62.6" font-family="Times,serif" font-size="14.00">SignupComponent</text>
</g>
<!-- SignupComponent&#45;&gt;AuthModule -->
<g id="edge3" class="edge">
<title>SignupComponent&#45;&gt;AuthModule</title>
<path fill="none" stroke="black" d="M85,-84.91C85,-104.14 85,-131.8 85,-131.8 85,-131.8 238.35,-131.8 238.35,-131.8"/>
<polygon fill="black" stroke="black" points="238.35,-135.3 248.35,-131.8 238.35,-128.3 238.35,-135.3"/>
</g>
<!-- AuthRoutingModule -->
<g id="node5" class="node">
<title>AuthRoutingModule</title>
<polygon fill="#8dd3c7" stroke="black" points="573.17,-84.8 570.17,-88.8 549.17,-88.8 546.17,-84.8 440.83,-84.8 440.83,-48.8 573.17,-48.8 573.17,-84.8"/>
<text text-anchor="middle" x="507" y="-62.6" font-family="Times,serif" font-size="14.00">AuthRoutingModule</text>
</g>
<!-- AuthRoutingModule&#45;&gt;AuthModule -->
<g id="edge4" class="edge">
<title>AuthRoutingModule&#45;&gt;AuthModule</title>
<path fill="none" stroke="black" d="M507,-84.91C507,-104.14 507,-131.8 507,-131.8 507,-131.8 345.77,-131.8 345.77,-131.8"/>
<polygon fill="black" stroke="black" points="345.77,-128.3 335.77,-131.8 345.77,-135.3 345.77,-128.3"/>
</g>
</g>
</svg>
