<?xml version="1.0" encoding="UTF-8" standalone="no"?>
<!DOCTYPE svg PUBLIC "-//W3C//DTD SVG 1.1//EN"
 "http://www.w3.org/Graphics/SVG/1.1/DTD/svg11.dtd">
<!-- Generated by graphviz version 5.0.0 (20220707.1540)
 -->
<!-- Title: dependencies Pages: 1 -->
<svg width="2994pt" height="174pt"
 viewBox="0.00 0.00 2994.00 173.80" xmlns="http://www.w3.org/2000/svg" xmlns:xlink="http://www.w3.org/1999/xlink">
<g id="graph0" class="graph" transform="scale(1 1) rotate(0) translate(4 169.8)">
<title>dependencies</title>
<polygon fill="white" stroke="transparent" points="-4,4 -4,-169.8 2990,-169.8 2990,4 -4,4"/>
<text text-anchor="middle" x="1493" y="-8.2" font-family="sans-serif" font-size="14.00">dependencies</text>
<g id="clust1" class="cluster">
<title>cluster_AdminModule</title>
<polygon fill="none" stroke="black" stroke-dasharray="1,5" points="8,-32.8 8,-157.8 2978,-157.8 2978,-32.8 8,-32.8"/>
</g>
<g id="clust2" class="cluster">
<title>cluster_AdminModule_declarations</title>
<polygon fill="none" stroke="black" points="184,-40.8 184,-92.8 2970,-92.8 2970,-40.8 184,-40.8"/>
</g>
<g id="clust21" class="cluster">
<title>cluster_AdminModule_imports</title>
<polygon fill="none" stroke="black" points="16,-40.8 16,-92.8 176,-92.8 176,-40.8 16,-40.8"/>
</g>
<!-- BodyComponent -->
<g id="node1" class="node">
<title>BodyComponent</title>
<polygon fill="#ffffb3" stroke="black" points="2961.67,-84.8 2850.33,-84.8 2850.33,-48.8 2961.67,-48.8 2961.67,-84.8"/>
<text text-anchor="middle" x="2906" y="-62.6" font-family="Times,serif" font-size="14.00">BodyComponent</text>
</g>
<!-- AdminModule -->
<g id="node19" class="node">
<title>AdminModule</title>
<polygon fill="#8dd3c7" stroke="black" points="1442.44,-149.8 1439.44,-153.8 1418.44,-153.8 1415.44,-149.8 1343.56,-149.8 1343.56,-113.8 1442.44,-113.8 1442.44,-149.8"/>
<text text-anchor="middle" x="1393" y="-127.6" font-family="Times,serif" font-size="14.00">AdminModule</text>
</g>
<!-- BodyComponent&#45;&gt;AdminModule -->
<g id="edge1" class="edge">
<title>BodyComponent&#45;&gt;AdminModule</title>
<path fill="none" stroke="black" d="M2906,-84.95C2906,-108.56 2906,-146.8 2906,-146.8 2906,-146.8 1452.48,-146.8 1452.48,-146.8"/>
<polygon fill="black" stroke="black" points="1452.48,-143.3 1442.48,-146.8 1452.48,-150.3 1452.48,-143.3"/>
</g>
<!-- ChatsComponent -->
<g id="node2" class="node">
<title>ChatsComponent</title>
<polygon fill="#ffffb3" stroke="black" points="2832.72,-84.8 2719.28,-84.8 2719.28,-48.8 2832.72,-48.8 2832.72,-84.8"/>
<text text-anchor="middle" x="2776" y="-62.6" font-family="Times,serif" font-size="14.00">ChatsComponent</text>
</g>
<!-- ChatsComponent&#45;&gt;AdminModule -->
<g id="edge2" class="edge">
<title>ChatsComponent&#45;&gt;AdminModule</title>
<path fill="none" stroke="black" d="M2776,-84.81C2776,-107.29 2776,-142.8 2776,-142.8 2776,-142.8 1452.22,-142.8 1452.22,-142.8"/>
<polygon fill="black" stroke="black" points="1452.22,-139.3 1442.22,-142.8 1452.22,-146.3 1452.22,-139.3"/>
</g>
<!-- CoursesComponent -->
<g id="node3" class="node">
<title>CoursesComponent</title>
<polygon fill="#ffffb3" stroke="black" points="2701.44,-84.8 2574.56,-84.8 2574.56,-48.8 2701.44,-48.8 2701.44,-84.8"/>
<text text-anchor="middle" x="2638" y="-62.6" font-family="Times,serif" font-size="14.00">CoursesComponent</text>
</g>
<!-- CoursesComponent&#45;&gt;AdminModule -->
<g id="edge3" class="edge">
<title>CoursesComponent&#45;&gt;AdminModule</title>
<path fill="none" stroke="black" d="M2638,-84.84C2638,-106.46 2638,-139.8 2638,-139.8 2638,-139.8 1452.57,-139.8 1452.57,-139.8"/>
<polygon fill="black" stroke="black" points="1452.57,-136.3 1442.57,-139.8 1452.57,-143.3 1452.57,-136.3"/>
</g>
<!-- CreateDoctorantComponent -->
<g id="node4" class="node">
<title>CreateDoctorantComponent</title>
<polygon fill="#ffffb3" stroke="black" points="2556.84,-84.8 2383.16,-84.8 2383.16,-48.8 2556.84,-48.8 2556.84,-84.8"/>
<text text-anchor="middle" x="2470" y="-62.6" font-family="Times,serif" font-size="14.00">CreateDoctorantComponent</text>
</g>
<!-- CreateDoctorantComponent&#45;&gt;AdminModule -->
<g id="edge4" class="edge">
<title>CreateDoctorantComponent&#45;&gt;AdminModule</title>
<path fill="none" stroke="black" d="M2470,-84.93C2470,-105.37 2470,-135.8 2470,-135.8 2470,-135.8 1452.43,-135.8 1452.43,-135.8"/>
<polygon fill="black" stroke="black" points="1452.43,-132.3 1442.43,-135.8 1452.43,-139.3 1452.43,-132.3"/>
</g>
<!-- CreateFormationComponent -->
<g id="node5" class="node">
<title>CreateFormationComponent</title>
<polygon fill="#ffffb3" stroke="black" points="2365.19,-84.8 2188.81,-84.8 2188.81,-48.8 2365.19,-48.8 2365.19,-84.8"/>
<text text-anchor="middle" x="2277" y="-62.6" font-family="Times,serif" font-size="14.00">CreateFormationComponent</text>
</g>
<!-- CreateFormationComponent&#45;&gt;AdminModule -->
<g id="edge5" class="edge">
<title>CreateFormationComponent&#45;&gt;AdminModule</title>
<path fill="none" stroke="black" d="M2277,-84.91C2277,-104.14 2277,-131.8 2277,-131.8 2277,-131.8 1452.42,-131.8 1452.42,-131.8"/>
<polygon fill="black" stroke="black" points="1452.42,-128.3 1442.42,-131.8 1452.42,-135.3 1452.42,-128.3"/>
</g>
<!-- CreateNewsComponent -->
<g id="node6" class="node">
<title>CreateNewsComponent</title>
<polygon fill="#ffffb3" stroke="black" points="2170.75,-84.8 2021.25,-84.8 2021.25,-48.8 2170.75,-48.8 2170.75,-84.8"/>
<text text-anchor="middle" x="2096" y="-62.6" font-family="Times,serif" font-size="14.00">CreateNewsComponent</text>
</g>
<!-- CreateNewsComponent&#45;&gt;AdminModule -->
<g id="edge6" class="edge">
<title>CreateNewsComponent&#45;&gt;AdminModule</title>
<path fill="none" stroke="black" d="M2096,-85.07C2096,-103.36 2096,-128.8 2096,-128.8 2096,-128.8 1452.43,-128.8 1452.43,-128.8"/>
<polygon fill="black" stroke="black" points="1452.43,-125.3 1442.43,-128.8 1452.43,-132.3 1452.43,-125.3"/>
</g>
<!-- DashboardComponent -->
<g id="node7" class="node">
<title>DashboardComponent</title>
<polygon fill="#ffffb3" stroke="black" points="2002.98,-84.8 1861.02,-84.8 1861.02,-48.8 2002.98,-48.8 2002.98,-84.8"/>
<text text-anchor="middle" x="1932" y="-62.6" font-family="Times,serif" font-size="14.00">DashboardComponent</text>
</g>
<!-- DashboardComponent&#45;&gt;AdminModule -->
<g id="edge7" class="edge">
<title>DashboardComponent&#45;&gt;AdminModule</title>
<path fill="none" stroke="black" d="M1932,-84.83C1932,-101.86 1932,-124.8 1932,-124.8 1932,-124.8 1452.26,-124.8 1452.26,-124.8"/>
<polygon fill="black" stroke="black" points="1452.26,-121.3 1442.26,-124.8 1452.26,-128.3 1452.26,-121.3"/>
</g>
<!-- DatabaseComponent -->
<g id="node8" class="node">
<title>DatabaseComponent</title>
<polygon fill="#ffffb3" stroke="black" points="1843.14,-84.8 1710.86,-84.8 1710.86,-48.8 1843.14,-48.8 1843.14,-84.8"/>
<text text-anchor="middle" x="1777" y="-62.6" font-family="Times,serif" font-size="14.00">DatabaseComponent</text>
</g>
<!-- DatabaseComponent&#45;&gt;AdminModule -->
<g id="edge8" class="edge">
<title>DatabaseComponent&#45;&gt;AdminModule</title>
<path fill="none" stroke="black" d="M1777,-84.81C1777,-100.85 1777,-121.8 1777,-121.8 1777,-121.8 1452.42,-121.8 1452.42,-121.8"/>
<polygon fill="black" stroke="black" points="1452.42,-118.3 1442.42,-121.8 1452.42,-125.3 1452.42,-118.3"/>
</g>
<!-- HeaderComponent -->
<g id="node9" class="node">
<title>HeaderComponent</title>
<polygon fill="#ffffb3" stroke="black" points="1692.75,-84.8 1571.25,-84.8 1571.25,-48.8 1692.75,-48.8 1692.75,-84.8"/>
<text text-anchor="middle" x="1632" y="-62.6" font-family="Times,serif" font-size="14.00">HeaderComponent</text>
</g>
<!-- HeaderComponent&#45;&gt;AdminModule -->
<g id="edge9" class="edge">
<title>HeaderComponent&#45;&gt;AdminModule</title>
<path fill="none" stroke="black" d="M1632,-84.92C1632,-99.58 1632,-117.8 1632,-117.8 1632,-117.8 1452.23,-117.8 1452.23,-117.8"/>
<polygon fill="black" stroke="black" points="1452.23,-114.3 1442.23,-117.8 1452.23,-121.3 1452.23,-114.3"/>
</g>
<!-- ListDoctorantComponent -->
<g id="node10" class="node">
<title>ListDoctorantComponent</title>
<polygon fill="#ffffb3" stroke="black" points="1553.59,-84.8 1394.41,-84.8 1394.41,-48.8 1553.59,-48.8 1553.59,-84.8"/>
<text text-anchor="middle" x="1474" y="-62.6" font-family="Times,serif" font-size="14.00">ListDoctorantComponent</text>
</g>
<!-- ListDoctorantComponent&#45;&gt;AdminModule -->
<g id="edge10" class="edge">
<title>ListDoctorantComponent&#45;&gt;AdminModule</title>
<path fill="none" stroke="black" d="M1418.34,-84.91C1418.34,-84.91 1418.34,-103.79 1418.34,-103.79"/>
<polygon fill="black" stroke="black" points="1414.84,-103.79 1418.34,-113.79 1421.84,-103.79 1414.84,-103.79"/>
</g>
<!-- ListProfComponent -->
<g id="node11" class="node">
<title>ListProfComponent</title>
<polygon fill="#ffffb3" stroke="black" points="1376.72,-84.8 1249.28,-84.8 1249.28,-48.8 1376.72,-48.8 1376.72,-84.8"/>
<text text-anchor="middle" x="1313" y="-62.6" font-family="Times,serif" font-size="14.00">ListProfComponent</text>
</g>
<!-- ListProfComponent&#45;&gt;AdminModule -->
<g id="edge11" class="edge">
<title>ListProfComponent&#45;&gt;AdminModule</title>
<path fill="none" stroke="black" d="M1360.19,-84.91C1360.19,-84.91 1360.19,-103.79 1360.19,-103.79"/>
<polygon fill="black" stroke="black" points="1356.69,-103.79 1360.19,-113.79 1363.69,-103.79 1356.69,-103.79"/>
</g>
<!-- ListStaffComponent -->
<g id="node12" class="node">
<title>ListStaffComponent</title>
<polygon fill="#ffffb3" stroke="black" points="1231.32,-84.8 1100.68,-84.8 1100.68,-48.8 1231.32,-48.8 1231.32,-84.8"/>
<text text-anchor="middle" x="1166" y="-62.6" font-family="Times,serif" font-size="14.00">ListStaffComponent</text>
</g>
<!-- ListStaffComponent&#45;&gt;AdminModule -->
<g id="edge12" class="edge">
<title>ListStaffComponent&#45;&gt;AdminModule</title>
<path fill="none" stroke="black" d="M1166,-84.92C1166,-99.58 1166,-117.8 1166,-117.8 1166,-117.8 1333.74,-117.8 1333.74,-117.8"/>
<polygon fill="black" stroke="black" points="1333.74,-121.3 1343.74,-117.8 1333.74,-114.3 1333.74,-121.3"/>
</g>
<!-- MiniProfilComponent -->
<g id="node13" class="node">
<title>MiniProfilComponent</title>
<polygon fill="#ffffb3" stroke="black" points="1083.45,-84.8 942.55,-84.8 942.55,-48.8 1083.45,-48.8 1083.45,-84.8"/>
<text text-anchor="middle" x="1013" y="-62.6" font-family="Times,serif" font-size="14.00">MiniProfilComponent</text>
</g>
<!-- MiniProfilComponent&#45;&gt;AdminModule -->
<g id="edge13" class="edge">
<title>MiniProfilComponent&#45;&gt;AdminModule</title>
<path fill="none" stroke="black" d="M1013,-84.81C1013,-100.85 1013,-121.8 1013,-121.8 1013,-121.8 1333.71,-121.8 1333.71,-121.8"/>
<polygon fill="black" stroke="black" points="1333.71,-125.3 1343.71,-121.8 1333.71,-118.3 1333.71,-125.3"/>
</g>
<!-- ResumeComponent -->
<g id="node14" class="node">
<title>ResumeComponent</title>
<polygon fill="#ffffb3" stroke="black" points="925.44,-84.8 798.56,-84.8 798.56,-48.8 925.44,-48.8 925.44,-84.8"/>
<text text-anchor="middle" x="862" y="-62.6" font-family="Times,serif" font-size="14.00">ResumeComponent</text>
</g>
<!-- ResumeComponent&#45;&gt;AdminModule -->
<g id="edge14" class="edge">
<title>ResumeComponent&#45;&gt;AdminModule</title>
<path fill="none" stroke="black" d="M862,-84.83C862,-101.86 862,-124.8 862,-124.8 862,-124.8 1333.52,-124.8 1333.52,-124.8"/>
<polygon fill="black" stroke="black" points="1333.52,-128.3 1343.52,-124.8 1333.52,-121.3 1333.52,-128.3"/>
</g>
<!-- ScreenComponent -->
<g id="node15" class="node">
<title>ScreenComponent</title>
<polygon fill="#ffffb3" stroke="black" points="780.92,-84.8 661.08,-84.8 661.08,-48.8 780.92,-48.8 780.92,-84.8"/>
<text text-anchor="middle" x="721" y="-62.6" font-family="Times,serif" font-size="14.00">ScreenComponent</text>
</g>
<!-- ScreenComponent&#45;&gt;AdminModule -->
<g id="edge15" class="edge">
<title>ScreenComponent&#45;&gt;AdminModule</title>
<path fill="none" stroke="black" d="M721,-85.07C721,-103.36 721,-128.8 721,-128.8 721,-128.8 1333.59,-128.8 1333.59,-128.8"/>
<polygon fill="black" stroke="black" points="1333.59,-132.3 1343.59,-128.8 1333.59,-125.3 1333.59,-132.3"/>
</g>
<!-- SettingsComponent -->
<g id="node16" class="node">
<title>SettingsComponent</title>
<polygon fill="#ffffb3" stroke="black" points="643.45,-84.8 516.55,-84.8 516.55,-48.8 643.45,-48.8 643.45,-84.8"/>
<text text-anchor="middle" x="580" y="-62.6" font-family="Times,serif" font-size="14.00">SettingsComponent</text>
</g>
<!-- SettingsComponent&#45;&gt;AdminModule -->
<g id="edge16" class="edge">
<title>SettingsComponent&#45;&gt;AdminModule</title>
<path fill="none" stroke="black" d="M580,-84.91C580,-104.14 580,-131.8 580,-131.8 580,-131.8 1333.67,-131.8 1333.67,-131.8"/>
<polygon fill="black" stroke="black" points="1333.67,-135.3 1343.67,-131.8 1333.67,-128.3 1333.67,-135.3"/>
</g>
<!-- SidenavComponent -->
<g id="node17" class="node">
<title>SidenavComponent</title>
<polygon fill="#ffffb3" stroke="black" points="499.44,-84.8 372.56,-84.8 372.56,-48.8 499.44,-48.8 499.44,-84.8"/>
<text text-anchor="middle" x="436" y="-62.6" font-family="Times,serif" font-size="14.00">SidenavComponent</text>
</g>
<!-- SidenavComponent&#45;&gt;AdminModule -->
<g id="edge17" class="edge">
<title>SidenavComponent&#45;&gt;AdminModule</title>
<path fill="none" stroke="black" d="M414.93,-84.84C414.93,-106.46 414.93,-139.8 414.93,-139.8 414.93,-139.8 1333.49,-139.8 1333.49,-139.8"/>
<polygon fill="black" stroke="black" points="1333.49,-143.3 1343.49,-139.8 1333.49,-136.3 1333.49,-143.3"/>
</g>
<!-- SidenavComponent&#45;&gt;AdminModule -->
<g id="edge18" class="edge">
<title>SidenavComponent&#45;&gt;AdminModule</title>
<path fill="none" stroke="black" d="M457.07,-84.93C457.07,-105.37 457.07,-135.8 457.07,-135.8 457.07,-135.8 1333.67,-135.8 1333.67,-135.8"/>
<polygon fill="black" stroke="black" points="1333.67,-139.3 1343.67,-135.8 1333.67,-132.3 1333.67,-139.3"/>
</g>
<!-- SublevelMenuComponent -->
<g id="node18" class="node">
<title>SublevelMenuComponent</title>
<polygon fill="#ffffb3" stroke="black" points="354.49,-84.8 191.51,-84.8 191.51,-48.8 354.49,-48.8 354.49,-84.8"/>
<text text-anchor="middle" x="273" y="-62.6" font-family="Times,serif" font-size="14.00">SublevelMenuComponent</text>
</g>
<!-- SublevelMenuComponent&#45;&gt;AdminModule -->
<g id="edge19" class="edge">
<title>SublevelMenuComponent&#45;&gt;AdminModule</title>
<path fill="none" stroke="black" d="M273,-84.81C273,-107.29 273,-142.8 273,-142.8 273,-142.8 1333.43,-142.8 1333.43,-142.8"/>
<polygon fill="black" stroke="black" points="1333.43,-146.3 1343.43,-142.8 1333.43,-139.3 1333.43,-146.3"/>
</g>
<!-- AdminRoutingModule -->
<g id="node20" class="node">
<title>AdminRoutingModule</title>
<polygon fill="#8dd3c7" stroke="black" points="167.56,-84.8 164.56,-88.8 143.56,-88.8 140.56,-84.8 24.44,-84.8 24.44,-48.8 167.56,-48.8 167.56,-84.8"/>
<text text-anchor="middle" x="96" y="-62.6" font-family="Times,serif" font-size="14.00">AdminRoutingModule</text>
</g>
<!-- AdminRoutingModule&#45;&gt;AdminModule -->
<g id="edge20" class="edge">
<title>AdminRoutingModule&#45;&gt;AdminModule</title>
<path fill="none" stroke="black" d="M96,-84.95C96,-108.56 96,-146.8 96,-146.8 96,-146.8 1333.74,-146.8 1333.74,-146.8"/>
<polygon fill="black" stroke="black" points="1333.74,-150.3 1343.74,-146.8 1333.74,-143.3 1333.74,-150.3"/>
</g>
</g>
</svg>
