<?xml version="1.0" encoding="UTF-8" standalone="no"?>
<!DOCTYPE svg PUBLIC "-//W3C//DTD SVG 1.1//EN"
 "http://www.w3.org/Graphics/SVG/1.1/DTD/svg11.dtd">
<!-- Generated by graphviz version 5.0.0 (20220707.1540)
 -->
<!-- Title: dependencies Pages: 1 -->
<svg width="2987pt" height="174pt"
 viewBox="0.00 0.00 2987.00 173.80" xmlns="http://www.w3.org/2000/svg" xmlns:xlink="http://www.w3.org/1999/xlink">
<g id="graph0" class="graph" transform="scale(1 1) rotate(0) translate(4 169.8)">
<title>dependencies</title>
<polygon fill="white" stroke="transparent" points="-4,4 -4,-169.8 2983,-169.8 2983,4 -4,4"/>
<text text-anchor="middle" x="1489.5" y="-8.2" font-family="sans-serif" font-size="14.00">dependencies</text>
<g id="clust1" class="cluster">
<title>cluster_AdminModule</title>
<polygon fill="none" stroke="black" stroke-dasharray="1,5" points="8,-32.8 8,-157.8 2971,-157.8 2971,-32.8 8,-32.8"/>
</g>
<g id="clust2" class="cluster">
<title>cluster_AdminModule_declarations</title>
<polygon fill="none" stroke="black" points="184,-40.8 184,-92.8 2963,-92.8 2963,-40.8 184,-40.8"/>
</g>
<g id="clust21" class="cluster">
<title>cluster_AdminModule_imports</title>
<polygon fill="none" stroke="black" points="16,-40.8 16,-92.8 176,-92.8 176,-40.8 16,-40.8"/>
</g>
<!-- BodyComponent -->
<g id="node1" class="node">
<title>BodyComponent</title>
<polygon fill="#ffffb3" stroke="black" points="2954.67,-84.8 2843.33,-84.8 2843.33,-48.8 2954.67,-48.8 2954.67,-84.8"/>
<text text-anchor="middle" x="2899" y="-62.6" font-family="Times,serif" font-size="14.00">BodyComponent</text>
</g>
<!-- AdminModule -->
<g id="node19" class="node">
<title>AdminModule</title>
<polygon fill="#8dd3c7" stroke="black" points="1444.44,-149.8 1441.44,-153.8 1420.44,-153.8 1417.44,-149.8 1345.56,-149.8 1345.56,-113.8 1444.44,-113.8 1444.44,-149.8"/>
<text text-anchor="middle" x="1395" y="-127.6" font-family="Times,serif" font-size="14.00">AdminModule</text>
</g>
<!-- BodyComponent&#45;&gt;AdminModule -->
<g id="edge1" class="edge">
<title>BodyComponent&#45;&gt;AdminModule</title>
<path fill="none" stroke="black" d="M2899,-84.95C2899,-108.56 2899,-146.8 2899,-146.8 2899,-146.8 1454.61,-146.8 1454.61,-146.8"/>
<polygon fill="black" stroke="black" points="1454.61,-143.3 1444.61,-146.8 1454.61,-150.3 1454.61,-143.3"/>
</g>
<!-- CalendarComponent -->
<g id="node2" class="node">
<title>CalendarComponent</title>
<polygon fill="#ffffb3" stroke="black" points="2824.86,-84.8 2693.14,-84.8 2693.14,-48.8 2824.86,-48.8 2824.86,-84.8"/>
<text text-anchor="middle" x="2759" y="-62.6" font-family="Times,serif" font-size="14.00">CalendarComponent</text>
</g>
<!-- CalendarComponent&#45;&gt;AdminModule -->
<g id="edge2" class="edge">
<title>CalendarComponent&#45;&gt;AdminModule</title>
<path fill="none" stroke="black" d="M2759,-84.81C2759,-107.29 2759,-142.8 2759,-142.8 2759,-142.8 1454.35,-142.8 1454.35,-142.8"/>
<polygon fill="black" stroke="black" points="1454.35,-139.3 1444.35,-142.8 1454.35,-146.3 1454.35,-139.3"/>
</g>
<!-- ChatsComponent -->
<g id="node3" class="node">
<title>ChatsComponent</title>
<polygon fill="#ffffb3" stroke="black" points="2674.72,-84.8 2561.28,-84.8 2561.28,-48.8 2674.72,-48.8 2674.72,-84.8"/>
<text text-anchor="middle" x="2618" y="-62.6" font-family="Times,serif" font-size="14.00">ChatsComponent</text>
</g>
<!-- ChatsComponent&#45;&gt;AdminModule -->
<g id="edge3" class="edge">
<title>ChatsComponent&#45;&gt;AdminModule</title>
<path fill="none" stroke="black" d="M2618,-84.84C2618,-106.46 2618,-139.8 2618,-139.8 2618,-139.8 1454.46,-139.8 1454.46,-139.8"/>
<polygon fill="black" stroke="black" points="1454.46,-136.3 1444.46,-139.8 1454.46,-143.3 1454.46,-136.3"/>
</g>
<!-- CoursesComponent -->
<g id="node4" class="node">
<title>CoursesComponent</title>
<polygon fill="#ffffb3" stroke="black" points="2543.44,-84.8 2416.56,-84.8 2416.56,-48.8 2543.44,-48.8 2543.44,-84.8"/>
<text text-anchor="middle" x="2480" y="-62.6" font-family="Times,serif" font-size="14.00">CoursesComponent</text>
</g>
<!-- CoursesComponent&#45;&gt;AdminModule -->
<g id="edge4" class="edge">
<title>CoursesComponent&#45;&gt;AdminModule</title>
<path fill="none" stroke="black" d="M2480,-84.93C2480,-105.37 2480,-135.8 2480,-135.8 2480,-135.8 1454.44,-135.8 1454.44,-135.8"/>
<polygon fill="black" stroke="black" points="1454.44,-132.3 1444.44,-135.8 1454.44,-139.3 1454.44,-132.3"/>
</g>
<!-- CreateDoctorantComponent -->
<g id="node5" class="node">
<title>CreateDoctorantComponent</title>
<polygon fill="#ffffb3" stroke="black" points="2398.84,-84.8 2225.16,-84.8 2225.16,-48.8 2398.84,-48.8 2398.84,-84.8"/>
<text text-anchor="middle" x="2312" y="-62.6" font-family="Times,serif" font-size="14.00">CreateDoctorantComponent</text>
</g>
<!-- CreateDoctorantComponent&#45;&gt;AdminModule -->
<g id="edge5" class="edge">
<title>CreateDoctorantComponent&#45;&gt;AdminModule</title>
<path fill="none" stroke="black" d="M2312,-84.91C2312,-104.14 2312,-131.8 2312,-131.8 2312,-131.8 1454.3,-131.8 1454.3,-131.8"/>
<polygon fill="black" stroke="black" points="1454.3,-128.3 1444.3,-131.8 1454.3,-135.3 1454.3,-128.3"/>
</g>
<!-- CreateFormationComponent -->
<g id="node6" class="node">
<title>CreateFormationComponent</title>
<polygon fill="#ffffb3" stroke="black" points="2207.19,-84.8 2030.81,-84.8 2030.81,-48.8 2207.19,-48.8 2207.19,-84.8"/>
<text text-anchor="middle" x="2119" y="-62.6" font-family="Times,serif" font-size="14.00">CreateFormationComponent</text>
</g>
<!-- CreateFormationComponent&#45;&gt;AdminModule -->
<g id="edge6" class="edge">
<title>CreateFormationComponent&#45;&gt;AdminModule</title>
<path fill="none" stroke="black" d="M2119,-85.07C2119,-103.36 2119,-128.8 2119,-128.8 2119,-128.8 1454.48,-128.8 1454.48,-128.8"/>
<polygon fill="black" stroke="black" points="1454.48,-125.3 1444.48,-128.8 1454.48,-132.3 1454.48,-125.3"/>
</g>
<!-- CreateNewsComponent -->
<g id="node7" class="node">
<title>CreateNewsComponent</title>
<polygon fill="#ffffb3" stroke="black" points="2012.75,-84.8 1863.25,-84.8 1863.25,-48.8 2012.75,-48.8 2012.75,-84.8"/>
<text text-anchor="middle" x="1938" y="-62.6" font-family="Times,serif" font-size="14.00">CreateNewsComponent</text>
</g>
<!-- CreateNewsComponent&#45;&gt;AdminModule -->
<g id="edge7" class="edge">
<title>CreateNewsComponent&#45;&gt;AdminModule</title>
<path fill="none" stroke="black" d="M1938,-84.83C1938,-101.86 1938,-124.8 1938,-124.8 1938,-124.8 1454.63,-124.8 1454.63,-124.8"/>
<polygon fill="black" stroke="black" points="1454.63,-121.3 1444.63,-124.8 1454.63,-128.3 1454.63,-121.3"/>
</g>
<!-- DashboardComponent -->
<g id="node8" class="node">
<title>DashboardComponent</title>
<polygon fill="#ffffb3" stroke="black" points="1844.98,-84.8 1703.02,-84.8 1703.02,-48.8 1844.98,-48.8 1844.98,-84.8"/>
<text text-anchor="middle" x="1774" y="-62.6" font-family="Times,serif" font-size="14.00">DashboardComponent</text>
</g>
<!-- DashboardComponent&#45;&gt;AdminModule -->
<g id="edge8" class="edge">
<title>DashboardComponent&#45;&gt;AdminModule</title>
<path fill="none" stroke="black" d="M1774,-84.81C1774,-100.85 1774,-121.8 1774,-121.8 1774,-121.8 1454.55,-121.8 1454.55,-121.8"/>
<polygon fill="black" stroke="black" points="1454.55,-118.3 1444.55,-121.8 1454.55,-125.3 1454.55,-118.3"/>
</g>
<!-- DatabaseComponent -->
<g id="node9" class="node">
<title>DatabaseComponent</title>
<polygon fill="#ffffb3" stroke="black" points="1685.14,-84.8 1552.86,-84.8 1552.86,-48.8 1685.14,-48.8 1685.14,-84.8"/>
<text text-anchor="middle" x="1619" y="-62.6" font-family="Times,serif" font-size="14.00">DatabaseComponent</text>
</g>
<!-- DatabaseComponent&#45;&gt;AdminModule -->
<g id="edge9" class="edge">
<title>DatabaseComponent&#45;&gt;AdminModule</title>
<path fill="none" stroke="black" d="M1619,-84.92C1619,-99.58 1619,-117.8 1619,-117.8 1619,-117.8 1454.44,-117.8 1454.44,-117.8"/>
<polygon fill="black" stroke="black" points="1454.44,-114.3 1444.44,-117.8 1454.44,-121.3 1454.44,-114.3"/>
</g>
<!-- HeaderComponent -->
<g id="node10" class="node">
<title>HeaderComponent</title>
<polygon fill="#ffffb3" stroke="black" points="1534.75,-84.8 1413.25,-84.8 1413.25,-48.8 1534.75,-48.8 1534.75,-84.8"/>
<text text-anchor="middle" x="1474" y="-62.6" font-family="Times,serif" font-size="14.00">HeaderComponent</text>
</g>
<!-- HeaderComponent&#45;&gt;AdminModule -->
<g id="edge10" class="edge">
<title>HeaderComponent&#45;&gt;AdminModule</title>
<path fill="none" stroke="black" d="M1428.67,-84.91C1428.67,-84.91 1428.67,-103.79 1428.67,-103.79"/>
<polygon fill="black" stroke="black" points="1425.17,-103.79 1428.67,-113.79 1432.17,-103.79 1425.17,-103.79"/>
</g>
<!-- ListDoctorantComponent -->
<g id="node11" class="node">
<title>ListDoctorantComponent</title>
<polygon fill="#ffffb3" stroke="black" points="1395.59,-84.8 1236.41,-84.8 1236.41,-48.8 1395.59,-48.8 1395.59,-84.8"/>
<text text-anchor="middle" x="1316" y="-62.6" font-family="Times,serif" font-size="14.00">ListDoctorantComponent</text>
</g>
<!-- ListDoctorantComponent&#45;&gt;AdminModule -->
<g id="edge11" class="edge">
<title>ListDoctorantComponent&#45;&gt;AdminModule</title>
<path fill="none" stroke="black" d="M1370.66,-84.91C1370.66,-84.91 1370.66,-103.79 1370.66,-103.79"/>
<polygon fill="black" stroke="black" points="1367.16,-103.79 1370.66,-113.79 1374.16,-103.79 1367.16,-103.79"/>
</g>
<!-- ListProfComponent -->
<g id="node12" class="node">
<title>ListProfComponent</title>
<polygon fill="#ffffb3" stroke="black" points="1218.72,-84.8 1091.28,-84.8 1091.28,-48.8 1218.72,-48.8 1218.72,-84.8"/>
<text text-anchor="middle" x="1155" y="-62.6" font-family="Times,serif" font-size="14.00">ListProfComponent</text>
</g>
<!-- ListProfComponent&#45;&gt;AdminModule -->
<g id="edge12" class="edge">
<title>ListProfComponent&#45;&gt;AdminModule</title>
<path fill="none" stroke="black" d="M1155,-84.92C1155,-99.58 1155,-117.8 1155,-117.8 1155,-117.8 1335.56,-117.8 1335.56,-117.8"/>
<polygon fill="black" stroke="black" points="1335.56,-121.3 1345.56,-117.8 1335.56,-114.3 1335.56,-121.3"/>
</g>
<!-- ListStaffComponent -->
<g id="node13" class="node">
<title>ListStaffComponent</title>
<polygon fill="#ffffb3" stroke="black" points="1073.32,-84.8 942.68,-84.8 942.68,-48.8 1073.32,-48.8 1073.32,-84.8"/>
<text text-anchor="middle" x="1008" y="-62.6" font-family="Times,serif" font-size="14.00">ListStaffComponent</text>
</g>
<!-- ListStaffComponent&#45;&gt;AdminModule -->
<g id="edge13" class="edge">
<title>ListStaffComponent&#45;&gt;AdminModule</title>
<path fill="none" stroke="black" d="M1008,-84.81C1008,-100.85 1008,-121.8 1008,-121.8 1008,-121.8 1335.59,-121.8 1335.59,-121.8"/>
<polygon fill="black" stroke="black" points="1335.59,-125.3 1345.59,-121.8 1335.59,-118.3 1335.59,-125.3"/>
</g>
<!-- ResumeComponent -->
<g id="node14" class="node">
<title>ResumeComponent</title>
<polygon fill="#ffffb3" stroke="black" points="925.44,-84.8 798.56,-84.8 798.56,-48.8 925.44,-48.8 925.44,-84.8"/>
<text text-anchor="middle" x="862" y="-62.6" font-family="Times,serif" font-size="14.00">ResumeComponent</text>
</g>
<!-- ResumeComponent&#45;&gt;AdminModule -->
<g id="edge14" class="edge">
<title>ResumeComponent&#45;&gt;AdminModule</title>
<path fill="none" stroke="black" d="M862,-84.83C862,-101.86 862,-124.8 862,-124.8 862,-124.8 1335.34,-124.8 1335.34,-124.8"/>
<polygon fill="black" stroke="black" points="1335.34,-128.3 1345.34,-124.8 1335.34,-121.3 1335.34,-128.3"/>
</g>
<!-- ScreenComponent -->
<g id="node15" class="node">
<title>ScreenComponent</title>
<polygon fill="#ffffb3" stroke="black" points="780.92,-84.8 661.08,-84.8 661.08,-48.8 780.92,-48.8 780.92,-84.8"/>
<text text-anchor="middle" x="721" y="-62.6" font-family="Times,serif" font-size="14.00">ScreenComponent</text>
</g>
<!-- ScreenComponent&#45;&gt;AdminModule -->
<g id="edge15" class="edge">
<title>ScreenComponent&#45;&gt;AdminModule</title>
<path fill="none" stroke="black" d="M721,-85.07C721,-103.36 721,-128.8 721,-128.8 721,-128.8 1335.71,-128.8 1335.71,-128.8"/>
<polygon fill="black" stroke="black" points="1335.71,-132.3 1345.71,-128.8 1335.71,-125.3 1335.71,-132.3"/>
</g>
<!-- SettingsComponent -->
<g id="node16" class="node">
<title>SettingsComponent</title>
<polygon fill="#ffffb3" stroke="black" points="643.45,-84.8 516.55,-84.8 516.55,-48.8 643.45,-48.8 643.45,-84.8"/>
<text text-anchor="middle" x="580" y="-62.6" font-family="Times,serif" font-size="14.00">SettingsComponent</text>
</g>
<!-- SettingsComponent&#45;&gt;AdminModule -->
<g id="edge16" class="edge">
<title>SettingsComponent&#45;&gt;AdminModule</title>
<path fill="none" stroke="black" d="M580,-84.91C580,-104.14 580,-131.8 580,-131.8 580,-131.8 1335.55,-131.8 1335.55,-131.8"/>
<polygon fill="black" stroke="black" points="1335.55,-135.3 1345.55,-131.8 1335.55,-128.3 1335.55,-135.3"/>
</g>
<!-- SidenavComponent -->
<g id="node17" class="node">
<title>SidenavComponent</title>
<polygon fill="#ffffb3" stroke="black" points="499.44,-84.8 372.56,-84.8 372.56,-48.8 499.44,-48.8 499.44,-84.8"/>
<text text-anchor="middle" x="436" y="-62.6" font-family="Times,serif" font-size="14.00">SidenavComponent</text>
</g>
<!-- SidenavComponent&#45;&gt;AdminModule -->
<g id="edge17" class="edge">
<title>SidenavComponent&#45;&gt;AdminModule</title>
<path fill="none" stroke="black" d="M414.93,-84.84C414.93,-106.46 414.93,-139.8 414.93,-139.8 414.93,-139.8 1335.73,-139.8 1335.73,-139.8"/>
<polygon fill="black" stroke="black" points="1335.73,-143.3 1345.73,-139.8 1335.73,-136.3 1335.73,-143.3"/>
</g>
<!-- SidenavComponent&#45;&gt;AdminModule -->
<g id="edge18" class="edge">
<title>SidenavComponent&#45;&gt;AdminModule</title>
<path fill="none" stroke="black" d="M457.07,-84.93C457.07,-105.37 457.07,-135.8 457.07,-135.8 457.07,-135.8 1335.56,-135.8 1335.56,-135.8"/>
<polygon fill="black" stroke="black" points="1335.56,-139.3 1345.56,-135.8 1335.56,-132.3 1335.56,-139.3"/>
</g>
<!-- SublevelMenuComponent -->
<g id="node18" class="node">
<title>SublevelMenuComponent</title>
<polygon fill="#ffffb3" stroke="black" points="354.49,-84.8 191.51,-84.8 191.51,-48.8 354.49,-48.8 354.49,-84.8"/>
<text text-anchor="middle" x="273" y="-62.6" font-family="Times,serif" font-size="14.00">SublevelMenuComponent</text>
</g>
<!-- SublevelMenuComponent&#45;&gt;AdminModule -->
<g id="edge19" class="edge">
<title>SublevelMenuComponent&#45;&gt;AdminModule</title>
<path fill="none" stroke="black" d="M273,-84.81C273,-107.29 273,-142.8 273,-142.8 273,-142.8 1335.71,-142.8 1335.71,-142.8"/>
<polygon fill="black" stroke="black" points="1335.71,-146.3 1345.71,-142.8 1335.71,-139.3 1335.71,-146.3"/>
</g>
<!-- AdminRoutingModule -->
<g id="node20" class="node">
<title>AdminRoutingModule</title>
<polygon fill="#8dd3c7" stroke="black" points="167.56,-84.8 164.56,-88.8 143.56,-88.8 140.56,-84.8 24.44,-84.8 24.44,-48.8 167.56,-48.8 167.56,-84.8"/>
<text text-anchor="middle" x="96" y="-62.6" font-family="Times,serif" font-size="14.00">AdminRoutingModule</text>
</g>
<!-- AdminRoutingModule&#45;&gt;AdminModule -->
<g id="edge20" class="edge">
<title>AdminRoutingModule&#45;&gt;AdminModule</title>
<path fill="none" stroke="black" d="M96,-84.95C96,-108.56 96,-146.8 96,-146.8 96,-146.8 1335.66,-146.8 1335.66,-146.8"/>
<polygon fill="black" stroke="black" points="1335.66,-150.3 1345.66,-146.8 1335.66,-143.3 1335.66,-150.3"/>
</g>
</g>
</svg>
