<?xml version="1.0" encoding="UTF-8" standalone="no"?>
<!DOCTYPE svg PUBLIC "-//W3C//DTD SVG 1.1//EN"
 "http://www.w3.org/Graphics/SVG/1.1/DTD/svg11.dtd">
<!-- Generated by graphviz version 5.0.0 (20220707.1540)
 -->
<!-- Title: dependencies Pages: 1 -->
<svg width="751pt" height="174pt"
 viewBox="0.00 0.00 751.00 173.80" xmlns="http://www.w3.org/2000/svg" xmlns:xlink="http://www.w3.org/1999/xlink">
<g id="graph0" class="graph" transform="scale(1 1) rotate(0) translate(4 169.8)">
<title>dependencies</title>
<polygon fill="white" stroke="transparent" points="-4,4 -4,-169.8 747,-169.8 747,4 -4,4"/>
<text text-anchor="middle" x="371.5" y="-8.2" font-family="sans-serif" font-size="14.00">dependencies</text>
<g id="clust1" class="cluster">
<title>cluster_DoctorantModule</title>
<polygon fill="none" stroke="black" stroke-dasharray="1,5" points="8,-32.8 8,-157.8 735,-157.8 735,-32.8 8,-32.8"/>
</g>
<g id="clust2" class="cluster">
<title>cluster_DoctorantModule_declarations</title>
<polygon fill="none" stroke="black" points="200,-40.8 200,-92.8 727,-92.8 727,-40.8 200,-40.8"/>
</g>
<g id="clust7" class="cluster">
<title>cluster_DoctorantModule_imports</title>
<polygon fill="none" stroke="black" points="16,-40.8 16,-92.8 192,-92.8 192,-40.8 16,-40.8"/>
</g>
<!-- BodyComponent -->
<g id="node1" class="node">
<title>BodyComponent</title>
<polygon fill="#ffffb3" stroke="black" points="718.67,-84.8 607.33,-84.8 607.33,-48.8 718.67,-48.8 718.67,-84.8"/>
<text text-anchor="middle" x="663" y="-62.6" font-family="Times,serif" font-size="14.00">BodyComponent</text>
</g>
<!-- DoctorantModule -->
<g id="node5" class="node">
<title>DoctorantModule</title>
<polygon fill="#8dd3c7" stroke="black" points="459.53,-149.8 456.53,-153.8 435.53,-153.8 432.53,-149.8 344.47,-149.8 344.47,-113.8 459.53,-113.8 459.53,-149.8"/>
<text text-anchor="middle" x="402" y="-127.6" font-family="Times,serif" font-size="14.00">DoctorantModule</text>
</g>
<!-- BodyComponent&#45;&gt;DoctorantModule -->
<g id="edge1" class="edge">
<title>BodyComponent&#45;&gt;DoctorantModule</title>
<path fill="none" stroke="black" d="M663,-85.08C663,-106.12 663,-137.8 663,-137.8 663,-137.8 469.6,-137.8 469.6,-137.8"/>
<polygon fill="black" stroke="black" points="469.6,-134.3 459.6,-137.8 469.6,-141.3 469.6,-134.3"/>
</g>
<!-- ChatsComponent -->
<g id="node2" class="node">
<title>ChatsComponent</title>
<polygon fill="#ffffb3" stroke="black" points="589.72,-84.8 476.28,-84.8 476.28,-48.8 589.72,-48.8 589.72,-84.8"/>
<text text-anchor="middle" x="533" y="-62.6" font-family="Times,serif" font-size="14.00">ChatsComponent</text>
</g>
<!-- ChatsComponent&#45;&gt;DoctorantModule -->
<g id="edge2" class="edge">
<title>ChatsComponent&#45;&gt;DoctorantModule</title>
<path fill="none" stroke="black" d="M533,-84.82C533,-102.17 533,-125.8 533,-125.8 533,-125.8 469.84,-125.8 469.84,-125.8"/>
<polygon fill="black" stroke="black" points="469.84,-122.3 459.84,-125.8 469.84,-129.3 469.84,-122.3"/>
</g>
<!-- ProfilComponent -->
<g id="node3" class="node">
<title>ProfilComponent</title>
<polygon fill="#ffffb3" stroke="black" points="458.72,-84.8 345.28,-84.8 345.28,-48.8 458.72,-48.8 458.72,-84.8"/>
<text text-anchor="middle" x="402" y="-62.6" font-family="Times,serif" font-size="14.00">ProfilComponent</text>
</g>
<!-- ProfilComponent&#45;&gt;DoctorantModule -->
<g id="edge3" class="edge">
<title>ProfilComponent&#45;&gt;DoctorantModule</title>
<path fill="none" stroke="black" d="M402,-84.91C402,-84.91 402,-103.79 402,-103.79"/>
<polygon fill="black" stroke="black" points="398.5,-103.79 402,-113.79 405.5,-103.79 398.5,-103.79"/>
</g>
<!-- ScreenComponent -->
<g id="node4" class="node">
<title>ScreenComponent</title>
<polygon fill="#ffffb3" stroke="black" points="327.92,-84.8 208.08,-84.8 208.08,-48.8 327.92,-48.8 327.92,-84.8"/>
<text text-anchor="middle" x="268" y="-62.6" font-family="Times,serif" font-size="14.00">ScreenComponent</text>
</g>
<!-- ScreenComponent&#45;&gt;DoctorantModule -->
<g id="edge4" class="edge">
<title>ScreenComponent&#45;&gt;DoctorantModule</title>
<path fill="none" stroke="black" d="M268,-84.82C268,-102.17 268,-125.8 268,-125.8 268,-125.8 334.39,-125.8 334.39,-125.8"/>
<polygon fill="black" stroke="black" points="334.39,-129.3 344.39,-125.8 334.39,-122.3 334.39,-129.3"/>
</g>
<!-- DoctorantRoutingModule -->
<g id="node6" class="node">
<title>DoctorantRoutingModule</title>
<polygon fill="#8dd3c7" stroke="black" points="184.15,-84.8 181.15,-88.8 160.15,-88.8 157.15,-84.8 23.85,-84.8 23.85,-48.8 184.15,-48.8 184.15,-84.8"/>
<text text-anchor="middle" x="104" y="-62.6" font-family="Times,serif" font-size="14.00">DoctorantRoutingModule</text>
</g>
<!-- DoctorantRoutingModule&#45;&gt;DoctorantModule -->
<g id="edge5" class="edge">
<title>DoctorantRoutingModule&#45;&gt;DoctorantModule</title>
<path fill="none" stroke="black" d="M104,-85.08C104,-106.12 104,-137.8 104,-137.8 104,-137.8 334.19,-137.8 334.19,-137.8"/>
<polygon fill="black" stroke="black" points="334.19,-141.3 344.19,-137.8 334.19,-134.3 334.19,-141.3"/>
</g>
</g>
</svg>
