<?xml version="1.0" encoding="UTF-8" standalone="no"?>
<!DOCTYPE svg PUBLIC "-//W3C//DTD SVG 1.1//EN"
 "http://www.w3.org/Graphics/SVG/1.1/DTD/svg11.dtd">
<!-- Generated by graphviz version 5.0.0 (20220707.1540)
 -->
<!-- Title: dependencies Pages: 1 -->
<svg width="798pt" height="174pt"
 viewBox="0.00 0.00 798.00 173.80" xmlns="http://www.w3.org/2000/svg" xmlns:xlink="http://www.w3.org/1999/xlink">
<g id="graph0" class="graph" transform="scale(1 1) rotate(0) translate(4 169.8)">
<title>dependencies</title>
<polygon fill="white" stroke="transparent" points="-4,4 -4,-169.8 794,-169.8 794,4 -4,4"/>
<text text-anchor="middle" x="395" y="-8.2" font-family="sans-serif" font-size="14.00">dependencies</text>
<g id="clust1" class="cluster">
<title>cluster_DoctorantModule</title>
<polygon fill="none" stroke="black" stroke-dasharray="1,5" points="8,-32.8 8,-157.8 782,-157.8 782,-32.8 8,-32.8"/>
</g>
<g id="clust7" class="cluster">
<title>cluster_DoctorantModule_imports</title>
<polygon fill="none" stroke="black" points="598,-40.8 598,-92.8 774,-92.8 774,-40.8 598,-40.8"/>
</g>
<g id="clust2" class="cluster">
<title>cluster_DoctorantModule_declarations</title>
<polygon fill="none" stroke="black" points="16,-40.8 16,-92.8 590,-92.8 590,-40.8 16,-40.8"/>
</g>
<!-- BodyComponent -->
<g id="node1" class="node">
<title>BodyComponent</title>
<polygon fill="#ffffb3" stroke="black" points="581.67,-84.8 470.33,-84.8 470.33,-48.8 581.67,-48.8 581.67,-84.8"/>
<text text-anchor="middle" x="526" y="-62.6" font-family="Times,serif" font-size="14.00">BodyComponent</text>
</g>
<!-- DoctorantModule -->
<g id="node5" class="node">
<title>DoctorantModule</title>
<polygon fill="#8dd3c7" stroke="black" points="443.53,-149.8 440.53,-153.8 419.53,-153.8 416.53,-149.8 328.47,-149.8 328.47,-113.8 443.53,-113.8 443.53,-149.8"/>
<text text-anchor="middle" x="386" y="-127.6" font-family="Times,serif" font-size="14.00">DoctorantModule</text>
</g>
<!-- BodyComponent&#45;&gt;DoctorantModule -->
<g id="edge1" class="edge">
<title>BodyComponent&#45;&gt;DoctorantModule</title>
<path fill="none" stroke="black" d="M526,-84.82C526,-102.17 526,-125.8 526,-125.8 526,-125.8 453.75,-125.8 453.75,-125.8"/>
<polygon fill="black" stroke="black" points="453.75,-122.3 443.75,-125.8 453.75,-129.3 453.75,-122.3"/>
</g>
<!-- CalendarComponent -->
<g id="node2" class="node">
<title>CalendarComponent</title>
<polygon fill="#ffffb3" stroke="black" points="451.86,-84.8 320.14,-84.8 320.14,-48.8 451.86,-48.8 451.86,-84.8"/>
<text text-anchor="middle" x="386" y="-62.6" font-family="Times,serif" font-size="14.00">CalendarComponent</text>
</g>
<!-- CalendarComponent&#45;&gt;DoctorantModule -->
<g id="edge2" class="edge">
<title>CalendarComponent&#45;&gt;DoctorantModule</title>
<path fill="none" stroke="black" d="M386,-84.91C386,-84.91 386,-103.79 386,-103.79"/>
<polygon fill="black" stroke="black" points="382.5,-103.79 386,-113.79 389.5,-103.79 382.5,-103.79"/>
</g>
<!-- MiniProfilComponent -->
<g id="node3" class="node">
<title>MiniProfilComponent</title>
<polygon fill="#ffffb3" stroke="black" points="302.45,-84.8 161.55,-84.8 161.55,-48.8 302.45,-48.8 302.45,-84.8"/>
<text text-anchor="middle" x="232" y="-62.6" font-family="Times,serif" font-size="14.00">MiniProfilComponent</text>
</g>
<!-- MiniProfilComponent&#45;&gt;DoctorantModule -->
<g id="edge3" class="edge">
<title>MiniProfilComponent&#45;&gt;DoctorantModule</title>
<path fill="none" stroke="black" d="M232,-84.82C232,-102.17 232,-125.8 232,-125.8 232,-125.8 318.22,-125.8 318.22,-125.8"/>
<polygon fill="black" stroke="black" points="318.22,-129.3 328.22,-125.8 318.22,-122.3 318.22,-129.3"/>
</g>
<!-- ScreenComponent -->
<g id="node4" class="node">
<title>ScreenComponent</title>
<polygon fill="#ffffb3" stroke="black" points="143.92,-84.8 24.08,-84.8 24.08,-48.8 143.92,-48.8 143.92,-84.8"/>
<text text-anchor="middle" x="84" y="-62.6" font-family="Times,serif" font-size="14.00">ScreenComponent</text>
</g>
<!-- ScreenComponent&#45;&gt;DoctorantModule -->
<g id="edge4" class="edge">
<title>ScreenComponent&#45;&gt;DoctorantModule</title>
<path fill="none" stroke="black" d="M84,-85.08C84,-106.12 84,-137.8 84,-137.8 84,-137.8 318.13,-137.8 318.13,-137.8"/>
<polygon fill="black" stroke="black" points="318.13,-141.3 328.13,-137.8 318.13,-134.3 318.13,-141.3"/>
</g>
<!-- DoctorantRoutingModule -->
<g id="node6" class="node">
<title>DoctorantRoutingModule</title>
<polygon fill="#8dd3c7" stroke="black" points="766.15,-84.8 763.15,-88.8 742.15,-88.8 739.15,-84.8 605.85,-84.8 605.85,-48.8 766.15,-48.8 766.15,-84.8"/>
<text text-anchor="middle" x="686" y="-62.6" font-family="Times,serif" font-size="14.00">DoctorantRoutingModule</text>
</g>
<!-- DoctorantRoutingModule&#45;&gt;DoctorantModule -->
<g id="edge5" class="edge">
<title>DoctorantRoutingModule&#45;&gt;DoctorantModule</title>
<path fill="none" stroke="black" d="M686,-85.08C686,-106.12 686,-137.8 686,-137.8 686,-137.8 453.84,-137.8 453.84,-137.8"/>
<polygon fill="black" stroke="black" points="453.84,-134.3 443.84,-137.8 453.84,-141.3 453.84,-134.3"/>
</g>
</g>
</svg>
