<?xml version="1.0" encoding="UTF-8" standalone="no"?>
<!DOCTYPE svg PUBLIC "-//W3C//DTD SVG 1.1//EN"
 "http://www.w3.org/Graphics/SVG/1.1/DTD/svg11.dtd">
<!-- Generated by graphviz version 5.0.0 (20220707.1540)
 -->
<!-- Title: dependencies Pages: 1 -->
<svg width="919pt" height="247pt"
 viewBox="0.00 0.00 919.00 246.80" xmlns="http://www.w3.org/2000/svg" xmlns:xlink="http://www.w3.org/1999/xlink">
<g id="graph0" class="graph" transform="scale(1 1) rotate(0) translate(4 242.8)">
<title>dependencies</title>
<polygon fill="white" stroke="transparent" points="-4,4 -4,-242.8 915,-242.8 915,4 -4,4"/>
<text text-anchor="middle" x="455.5" y="-8.2" font-family="sans-serif" font-size="14.00">dependencies</text>
<g id="clust1" class="cluster">
<title>cluster_PublicModule</title>
<polygon fill="none" stroke="black" stroke-dasharray="1,5" points="8,-32.8 8,-230.8 903,-230.8 903,-32.8 8,-32.8"/>
</g>
<g id="clust2" class="cluster">
<title>cluster_PublicModule_declarations</title>
<polygon fill="none" stroke="black" points="180,-40.8 180,-92.8 895,-92.8 895,-40.8 180,-40.8"/>
</g>
<g id="clust9" class="cluster">
<title>cluster_PublicModule_exports</title>
<polygon fill="none" stroke="black" points="411,-170.8 411,-222.8 553,-222.8 553,-170.8 411,-170.8"/>
</g>
<g id="clust8" class="cluster">
<title>cluster_PublicModule_imports</title>
<polygon fill="none" stroke="black" points="16,-40.8 16,-92.8 172,-92.8 172,-40.8 16,-40.8"/>
</g>
<!-- AboutComponent -->
<g id="node1" class="node">
<title>AboutComponent</title>
<polygon fill="#ffffb3" stroke="black" points="887.33,-84.8 770.67,-84.8 770.67,-48.8 887.33,-48.8 887.33,-84.8"/>
<text text-anchor="middle" x="829" y="-62.6" font-family="Times,serif" font-size="14.00">AboutComponent</text>
</g>
<!-- PublicModule -->
<g id="node6" class="node">
<title>PublicModule</title>
<polygon fill="#8dd3c7" stroke="black" points="529.83,-149.8 526.83,-153.8 505.83,-153.8 502.83,-149.8 434.17,-149.8 434.17,-113.8 529.83,-113.8 529.83,-149.8"/>
<text text-anchor="middle" x="482" y="-127.6" font-family="Times,serif" font-size="14.00">PublicModule</text>
</g>
<!-- AboutComponent&#45;&gt;PublicModule -->
<g id="edge1" class="edge">
<title>AboutComponent&#45;&gt;PublicModule</title>
<path fill="none" stroke="black" d="M829,-85.08C829,-106.12 829,-137.8 829,-137.8 829,-137.8 539.88,-137.8 539.88,-137.8"/>
<polygon fill="black" stroke="black" points="539.88,-134.3 529.88,-137.8 539.88,-141.3 539.88,-134.3"/>
</g>
<!-- FooterComponent -->
<g id="node2" class="node">
<title>FooterComponent</title>
<polygon fill="#ffffb3" stroke="black" points="752.88,-84.8 635.12,-84.8 635.12,-48.8 752.88,-48.8 752.88,-84.8"/>
<text text-anchor="middle" x="694" y="-62.6" font-family="Times,serif" font-size="14.00">FooterComponent</text>
</g>
<!-- FooterComponent&#45;&gt;PublicModule -->
<g id="edge2" class="edge">
<title>FooterComponent&#45;&gt;PublicModule</title>
<path fill="none" stroke="black" d="M694,-84.82C694,-102.17 694,-125.8 694,-125.8 694,-125.8 539.84,-125.8 539.84,-125.8"/>
<polygon fill="black" stroke="black" points="539.84,-122.3 529.84,-125.8 539.84,-129.3 539.84,-122.3"/>
</g>
<!-- HomeComponent -->
<g id="node3" class="node">
<title>HomeComponent</title>
<polygon fill="#ffffb3" stroke="black" points="616.55,-84.8 501.45,-84.8 501.45,-48.8 616.55,-48.8 616.55,-84.8"/>
<text text-anchor="middle" x="559" y="-62.6" font-family="Times,serif" font-size="14.00">HomeComponent</text>
</g>
<!-- HomeComponent&#45;&gt;PublicModule -->
<g id="edge3" class="edge">
<title>HomeComponent&#45;&gt;PublicModule</title>
<path fill="none" stroke="black" d="M515.45,-84.91C515.45,-84.91 515.45,-103.79 515.45,-103.79"/>
<polygon fill="black" stroke="black" points="511.95,-103.79 515.45,-113.79 518.95,-103.79 511.95,-103.79"/>
</g>
<!-- LandingPageComponent -->
<g id="node4" class="node">
<title>LandingPageComponent</title>
<polygon fill="#ffffb3" stroke="black" points="483.7,-84.8 328.3,-84.8 328.3,-48.8 483.7,-48.8 483.7,-84.8"/>
<text text-anchor="middle" x="406" y="-62.6" font-family="Times,serif" font-size="14.00">LandingPageComponent</text>
</g>
<!-- LandingPageComponent&#45;&gt;PublicModule -->
<g id="edge4" class="edge">
<title>LandingPageComponent&#45;&gt;PublicModule</title>
<path fill="none" stroke="black" d="M458.97,-84.91C458.97,-84.91 458.97,-103.79 458.97,-103.79"/>
<polygon fill="black" stroke="black" points="455.47,-103.79 458.97,-113.79 462.47,-103.79 455.47,-103.79"/>
</g>
<!-- NavbarComponent -->
<g id="node5" class="node">
<title>NavbarComponent</title>
<polygon fill="#ffffb3" stroke="black" points="310.03,-84.8 187.97,-84.8 187.97,-48.8 310.03,-48.8 310.03,-84.8"/>
<text text-anchor="middle" x="249" y="-62.6" font-family="Times,serif" font-size="14.00">NavbarComponent</text>
</g>
<!-- NavbarComponent&#45;&gt;PublicModule -->
<g id="edge5" class="edge">
<title>NavbarComponent&#45;&gt;PublicModule</title>
<path fill="none" stroke="black" d="M249,-84.82C249,-102.17 249,-125.8 249,-125.8 249,-125.8 424.29,-125.8 424.29,-125.8"/>
<polygon fill="black" stroke="black" points="424.29,-129.3 434.29,-125.8 424.29,-122.3 424.29,-129.3"/>
</g>
<!-- NavbarComponent  -->
<g id="node8" class="node">
<title>NavbarComponent </title>
<polygon fill="#fb8072" stroke="black" points="545.03,-214.8 418.97,-214.8 418.97,-178.8 545.03,-178.8 545.03,-214.8"/>
<text text-anchor="middle" x="482" y="-192.6" font-family="Times,serif" font-size="14.00">NavbarComponent </text>
</g>
<!-- PublicModule&#45;&gt;NavbarComponent  -->
<g id="edge7" class="edge">
<title>PublicModule&#45;&gt;NavbarComponent </title>
<path fill="none" stroke="black" stroke-dasharray="5,2" d="M482,-149.91C482,-149.91 482,-168.79 482,-168.79"/>
<polygon fill="black" stroke="black" points="478.5,-168.79 482,-178.79 485.5,-168.79 478.5,-168.79"/>
</g>
<!-- PublicRoutingModule -->
<g id="node7" class="node">
<title>PublicRoutingModule</title>
<polygon fill="#8dd3c7" stroke="black" points="164.45,-84.8 161.45,-88.8 140.45,-88.8 137.45,-84.8 23.55,-84.8 23.55,-48.8 164.45,-48.8 164.45,-84.8"/>
<text text-anchor="middle" x="94" y="-62.6" font-family="Times,serif" font-size="14.00">PublicRoutingModule</text>
</g>
<!-- PublicRoutingModule&#45;&gt;PublicModule -->
<g id="edge6" class="edge">
<title>PublicRoutingModule&#45;&gt;PublicModule</title>
<path fill="none" stroke="black" d="M94,-85.08C94,-106.12 94,-137.8 94,-137.8 94,-137.8 424.03,-137.8 424.03,-137.8"/>
<polygon fill="black" stroke="black" points="424.03,-141.3 434.03,-137.8 424.03,-134.3 424.03,-141.3"/>
</g>
</g>
</svg>
