<?xml version="1.0" encoding="UTF-8" standalone="no"?>
<!DOCTYPE svg PUBLIC "-//W3C//DTD SVG 1.1//EN"
 "http://www.w3.org/Graphics/SVG/1.1/DTD/svg11.dtd">
<!-- Generated by graphviz version 5.0.0 (20220707.1540)
 -->
<!-- Title: dependencies Pages: 1 -->
<svg width="1063pt" height="247pt"
 viewBox="0.00 0.00 1063.00 246.80" xmlns="http://www.w3.org/2000/svg" xmlns:xlink="http://www.w3.org/1999/xlink">
<g id="graph0" class="graph" transform="scale(1 1) rotate(0) translate(4 242.8)">
<title>dependencies</title>
<polygon fill="white" stroke="transparent" points="-4,4 -4,-242.8 1059,-242.8 1059,4 -4,4"/>
<text text-anchor="middle" x="527.5" y="-8.2" font-family="sans-serif" font-size="14.00">dependencies</text>
<g id="clust1" class="cluster">
<title>cluster_PublicModule</title>
<polygon fill="none" stroke="black" stroke-dasharray="1,5" points="8,-32.8 8,-230.8 1047,-230.8 1047,-32.8 8,-32.8"/>
</g>
<g id="clust10" class="cluster">
<title>cluster_PublicModule_exports</title>
<polygon fill="none" stroke="black" points="488,-170.8 488,-222.8 630,-222.8 630,-170.8 488,-170.8"/>
</g>
<g id="clust2" class="cluster">
<title>cluster_PublicModule_declarations</title>
<polygon fill="none" stroke="black" points="180,-40.8 180,-92.8 1039,-92.8 1039,-40.8 180,-40.8"/>
</g>
<g id="clust9" class="cluster">
<title>cluster_PublicModule_imports</title>
<polygon fill="none" stroke="black" points="16,-40.8 16,-92.8 172,-92.8 172,-40.8 16,-40.8"/>
</g>
<!-- AboutComponent -->
<g id="node1" class="node">
<title>AboutComponent</title>
<polygon fill="#ffffb3" stroke="black" points="1031.33,-84.8 914.67,-84.8 914.67,-48.8 1031.33,-48.8 1031.33,-84.8"/>
<text text-anchor="middle" x="973" y="-62.6" font-family="Times,serif" font-size="14.00">AboutComponent</text>
</g>
<!-- PublicModule -->
<g id="node7" class="node">
<title>PublicModule</title>
<polygon fill="#8dd3c7" stroke="black" points="606.83,-149.8 603.83,-153.8 582.83,-153.8 579.83,-149.8 511.17,-149.8 511.17,-113.8 606.83,-113.8 606.83,-149.8"/>
<text text-anchor="middle" x="559" y="-127.6" font-family="Times,serif" font-size="14.00">PublicModule</text>
</g>
<!-- AboutComponent&#45;&gt;PublicModule -->
<g id="edge1" class="edge">
<title>AboutComponent&#45;&gt;PublicModule</title>
<path fill="none" stroke="black" d="M973,-85.09C973,-107.01 973,-140.8 973,-140.8 973,-140.8 616.9,-140.8 616.9,-140.8"/>
<polygon fill="black" stroke="black" points="616.9,-137.3 606.9,-140.8 616.9,-144.3 616.9,-137.3"/>
</g>
<!-- CoursesComponent -->
<g id="node2" class="node">
<title>CoursesComponent</title>
<polygon fill="#ffffb3" stroke="black" points="897.44,-84.8 770.56,-84.8 770.56,-48.8 897.44,-48.8 897.44,-84.8"/>
<text text-anchor="middle" x="834" y="-62.6" font-family="Times,serif" font-size="14.00">CoursesComponent</text>
</g>
<!-- CoursesComponent&#45;&gt;PublicModule -->
<g id="edge2" class="edge">
<title>CoursesComponent&#45;&gt;PublicModule</title>
<path fill="none" stroke="black" d="M834,-84.91C834,-104.14 834,-131.8 834,-131.8 834,-131.8 616.9,-131.8 616.9,-131.8"/>
<polygon fill="black" stroke="black" points="616.9,-128.3 606.9,-131.8 616.9,-135.3 616.9,-128.3"/>
</g>
<!-- FooterComponent -->
<g id="node3" class="node">
<title>FooterComponent</title>
<polygon fill="#ffffb3" stroke="black" points="752.88,-84.8 635.12,-84.8 635.12,-48.8 752.88,-48.8 752.88,-84.8"/>
<text text-anchor="middle" x="694" y="-62.6" font-family="Times,serif" font-size="14.00">FooterComponent</text>
</g>
<!-- FooterComponent&#45;&gt;PublicModule -->
<g id="edge3" class="edge">
<title>FooterComponent&#45;&gt;PublicModule</title>
<path fill="none" stroke="black" d="M694,-84.83C694,-101.2 694,-122.8 694,-122.8 694,-122.8 616.98,-122.8 616.98,-122.8"/>
<polygon fill="black" stroke="black" points="616.98,-119.3 606.98,-122.8 616.98,-126.3 616.98,-119.3"/>
</g>
<!-- HomeComponent -->
<g id="node4" class="node">
<title>HomeComponent</title>
<polygon fill="#ffffb3" stroke="black" points="616.55,-84.8 501.45,-84.8 501.45,-48.8 616.55,-48.8 616.55,-84.8"/>
<text text-anchor="middle" x="559" y="-62.6" font-family="Times,serif" font-size="14.00">HomeComponent</text>
</g>
<!-- HomeComponent&#45;&gt;PublicModule -->
<g id="edge4" class="edge">
<title>HomeComponent&#45;&gt;PublicModule</title>
<path fill="none" stroke="black" d="M559,-84.91C559,-84.91 559,-103.79 559,-103.79"/>
<polygon fill="black" stroke="black" points="555.5,-103.79 559,-113.79 562.5,-103.79 555.5,-103.79"/>
</g>
<!-- LandingPageComponent -->
<g id="node5" class="node">
<title>LandingPageComponent</title>
<polygon fill="#ffffb3" stroke="black" points="483.7,-84.8 328.3,-84.8 328.3,-48.8 483.7,-48.8 483.7,-84.8"/>
<text text-anchor="middle" x="406" y="-62.6" font-family="Times,serif" font-size="14.00">LandingPageComponent</text>
</g>
<!-- LandingPageComponent&#45;&gt;PublicModule -->
<g id="edge5" class="edge">
<title>LandingPageComponent&#45;&gt;PublicModule</title>
<path fill="none" stroke="black" d="M406,-84.83C406,-101.2 406,-122.8 406,-122.8 406,-122.8 501.01,-122.8 501.01,-122.8"/>
<polygon fill="black" stroke="black" points="501.01,-126.3 511.01,-122.8 501.01,-119.3 501.01,-126.3"/>
</g>
<!-- NavbarComponent -->
<g id="node6" class="node">
<title>NavbarComponent</title>
<polygon fill="#ffffb3" stroke="black" points="310.03,-84.8 187.97,-84.8 187.97,-48.8 310.03,-48.8 310.03,-84.8"/>
<text text-anchor="middle" x="249" y="-62.6" font-family="Times,serif" font-size="14.00">NavbarComponent</text>
</g>
<!-- NavbarComponent&#45;&gt;PublicModule -->
<g id="edge6" class="edge">
<title>NavbarComponent&#45;&gt;PublicModule</title>
<path fill="none" stroke="black" d="M249,-84.91C249,-104.14 249,-131.8 249,-131.8 249,-131.8 501.24,-131.8 501.24,-131.8"/>
<polygon fill="black" stroke="black" points="501.24,-135.3 511.24,-131.8 501.24,-128.3 501.24,-135.3"/>
</g>
<!-- NavbarComponent  -->
<g id="node9" class="node">
<title>NavbarComponent </title>
<polygon fill="#fb8072" stroke="black" points="622.03,-214.8 495.97,-214.8 495.97,-178.8 622.03,-178.8 622.03,-214.8"/>
<text text-anchor="middle" x="559" y="-192.6" font-family="Times,serif" font-size="14.00">NavbarComponent </text>
</g>
<!-- PublicModule&#45;&gt;NavbarComponent  -->
<g id="edge8" class="edge">
<title>PublicModule&#45;&gt;NavbarComponent </title>
<path fill="none" stroke="black" stroke-dasharray="5,2" d="M559,-149.91C559,-149.91 559,-168.79 559,-168.79"/>
<polygon fill="black" stroke="black" points="555.5,-168.79 559,-178.79 562.5,-168.79 555.5,-168.79"/>
</g>
<!-- PublicRoutingModule -->
<g id="node8" class="node">
<title>PublicRoutingModule</title>
<polygon fill="#8dd3c7" stroke="black" points="164.45,-84.8 161.45,-88.8 140.45,-88.8 137.45,-84.8 23.55,-84.8 23.55,-48.8 164.45,-48.8 164.45,-84.8"/>
<text text-anchor="middle" x="94" y="-62.6" font-family="Times,serif" font-size="14.00">PublicRoutingModule</text>
</g>
<!-- PublicRoutingModule&#45;&gt;PublicModule -->
<g id="edge7" class="edge">
<title>PublicRoutingModule&#45;&gt;PublicModule</title>
<path fill="none" stroke="black" d="M94,-85.09C94,-107.01 94,-140.8 94,-140.8 94,-140.8 500.99,-140.8 500.99,-140.8"/>
<polygon fill="black" stroke="black" points="500.99,-144.3 510.99,-140.8 500.99,-137.3 500.99,-144.3"/>
</g>
</g>
</svg>
