<?xml version="1.0" encoding="UTF-8" standalone="no"?>
<!DOCTYPE svg PUBLIC "-//W3C//DTD SVG 1.1//EN"
 "http://www.w3.org/Graphics/SVG/1.1/DTD/svg11.dtd">
<!-- Generated by graphviz version 5.0.0 (20220707.1540)
 -->
<!-- Title: dependencies Pages: 1 -->
<svg width="5243pt" height="326pt"
 viewBox="0.00 0.00 5243.00 325.80" xmlns="http://www.w3.org/2000/svg" xmlns:xlink="http://www.w3.org/1999/xlink">
<g id="graph0" class="graph" transform="scale(1 1) rotate(0) translate(4 321.8)">
<title>dependencies</title>
<polygon fill="white" stroke="transparent" points="-4,4 -4,-321.8 5239,-321.8 5239,4 -4,4"/>
<text text-anchor="middle" x="2617.5" y="-8.2" font-family="sans-serif" font-size="14.00">dependencies</text>
<g id="clust1" class="cluster">
<title>cluster_AdminModule</title>
<polygon fill="none" stroke="black" stroke-dasharray="1,5" points="8,-32.8 8,-168.8 2970,-168.8 2970,-32.8 8,-32.8"/>
</g>
<g id="clust2" class="cluster">
<title>cluster_AdminModule_declarations</title>
<polygon fill="none" stroke="black" points="184,-40.8 184,-92.8 2962,-92.8 2962,-40.8 184,-40.8"/>
</g>
<g id="clust21" class="cluster">
<title>cluster_AdminModule_imports</title>
<polygon fill="none" stroke="black" points="16,-40.8 16,-92.8 176,-92.8 176,-40.8 16,-40.8"/>
</g>
<g id="clust31" class="cluster">
<title>cluster_AppModule</title>
<polygon fill="none" stroke="black" stroke-dasharray="1,5" points="4242,-108.8 4242,-309.8 4637,-309.8 4637,-108.8 4242,-108.8"/>
</g>
<g id="clust32" class="cluster">
<title>cluster_AppModule_declarations</title>
<polygon fill="none" stroke="black" points="4507,-116.8 4507,-168.8 4629,-168.8 4629,-116.8 4507,-116.8"/>
</g>
<g id="clust34" class="cluster">
<title>cluster_AppModule_imports</title>
<polygon fill="none" stroke="black" points="4250,-116.8 4250,-168.8 4499,-168.8 4499,-116.8 4250,-116.8"/>
</g>
<g id="clust36" class="cluster">
<title>cluster_AppModule_bootstrap</title>
<polygon fill="none" stroke="black" points="4365,-249.8 4365,-301.8 4489,-301.8 4489,-249.8 4365,-249.8"/>
</g>
<g id="clust44" class="cluster">
<title>cluster_AuthModule</title>
<polygon fill="none" stroke="black" stroke-dasharray="1,5" points="4645,-32.8 4645,-168.8 5227,-168.8 5227,-32.8 4645,-32.8"/>
</g>
<g id="clust45" class="cluster">
<title>cluster_AuthModule_declarations</title>
<polygon fill="none" stroke="black" points="4809,-40.8 4809,-92.8 5219,-92.8 5219,-40.8 4809,-40.8"/>
</g>
<g id="clust49" class="cluster">
<title>cluster_AuthModule_imports</title>
<polygon fill="none" stroke="black" points="4653,-40.8 4653,-92.8 4801,-92.8 4801,-40.8 4653,-40.8"/>
</g>
<g id="clust59" class="cluster">
<title>cluster_CoreModule</title>
<polygon fill="none" stroke="black" stroke-dasharray="1,5" points="4219,-32.8 4219,-100.8 4383,-100.8 4383,-32.8 4219,-32.8"/>
</g>
<g id="clust61" class="cluster">
<title>cluster_CoreModule_imports</title>
<polygon fill="none" stroke="black" points="4227,-40.8 4227,-92.8 4375,-92.8 4375,-40.8 4227,-40.8"/>
</g>
<g id="clust71" class="cluster">
<title>cluster_DoctorantModule</title>
<polygon fill="none" stroke="black" stroke-dasharray="1,5" points="2978,-32.8 2978,-168.8 3308,-168.8 3308,-32.8 2978,-32.8"/>
</g>
<g id="clust72" class="cluster">
<title>cluster_DoctorantModule_declarations</title>
<polygon fill="none" stroke="black" points="3170,-40.8 3170,-92.8 3300,-92.8 3300,-40.8 3170,-40.8"/>
</g>
<g id="clust77" class="cluster">
<title>cluster_DoctorantModule_imports</title>
<polygon fill="none" stroke="black" points="2986,-40.8 2986,-92.8 3162,-92.8 3162,-40.8 2986,-40.8"/>
</g>
<g id="clust87" class="cluster">
<title>cluster_PublicModule</title>
<polygon fill="none" stroke="black" stroke-dasharray="1,5" points="3316,-32.8 3316,-241.8 4211,-241.8 4211,-32.8 3316,-32.8"/>
</g>
<g id="clust88" class="cluster">
<title>cluster_PublicModule_declarations</title>
<polygon fill="none" stroke="black" points="3488,-40.8 3488,-92.8 4203,-92.8 4203,-40.8 3488,-40.8"/>
</g>
<g id="clust95" class="cluster">
<title>cluster_PublicModule_imports</title>
<polygon fill="none" stroke="black" points="3324,-40.8 3324,-92.8 3480,-92.8 3480,-40.8 3324,-40.8"/>
</g>
<g id="clust96" class="cluster">
<title>cluster_PublicModule_exports</title>
<polygon fill="none" stroke="black" points="3620,-181.8 3620,-233.8 3762,-233.8 3762,-181.8 3620,-181.8"/>
</g>
<!-- BodyComponent -->
<g id="node1" class="node">
<title>BodyComponent</title>
<polygon fill="#ffffb3" stroke="black" points="2671.67,-84.8 2560.33,-84.8 2560.33,-48.8 2671.67,-48.8 2671.67,-84.8"/>
<text text-anchor="middle" x="2616" y="-62.6" font-family="Times,serif" font-size="14.00">BodyComponent</text>
</g>
<!-- AdminModule -->
<g id="node19" class="node">
<title>AdminModule</title>
<polygon fill="#8dd3c7" stroke="black" points="1630.44,-160.8 1627.44,-164.8 1606.44,-164.8 1603.44,-160.8 1531.56,-160.8 1531.56,-124.8 1630.44,-124.8 1630.44,-160.8"/>
<text text-anchor="middle" x="1581" y="-138.6" font-family="Times,serif" font-size="14.00">AdminModule</text>
</g>
<!-- BodyComponent&#45;&gt;AdminModule -->
<g id="edge1" class="edge">
<title>BodyComponent&#45;&gt;AdminModule</title>
<path fill="none" stroke="black" d="M2597.39,-85.04C2597.39,-110.28 2597.39,-152.8 2597.39,-152.8 2597.39,-152.8 1640.37,-152.8 1640.37,-152.8"/>
<polygon fill="black" stroke="black" points="1640.37,-149.3 1630.37,-152.8 1640.37,-156.3 1640.37,-149.3"/>
</g>
<!-- DoctorantModule -->
<g id="node33" class="node">
<title>DoctorantModule</title>
<polygon fill="#8dd3c7" stroke="black" points="3101.53,-160.8 3098.53,-164.8 3077.53,-164.8 3074.53,-160.8 2986.47,-160.8 2986.47,-124.8 3101.53,-124.8 3101.53,-160.8"/>
<text text-anchor="middle" x="3044" y="-138.6" font-family="Times,serif" font-size="14.00">DoctorantModule</text>
</g>
<!-- BodyComponent&#45;&gt;DoctorantModule -->
<g id="edge30" class="edge">
<title>BodyComponent&#45;&gt;DoctorantModule</title>
<path fill="none" stroke="black" d="M2634.61,-84.97C2634.61,-103.89 2634.61,-130.8 2634.61,-130.8 2634.61,-130.8 2976.21,-130.8 2976.21,-130.8"/>
<polygon fill="black" stroke="black" points="2976.21,-134.3 2986.21,-130.8 2976.21,-127.3 2976.21,-134.3"/>
</g>
<!-- CalendarComponent -->
<g id="node2" class="node">
<title>CalendarComponent</title>
<polygon fill="#ffffb3" stroke="black" points="1937.86,-84.8 1806.14,-84.8 1806.14,-48.8 1937.86,-48.8 1937.86,-84.8"/>
<text text-anchor="middle" x="1872" y="-62.6" font-family="Times,serif" font-size="14.00">CalendarComponent</text>
</g>
<!-- CalendarComponent&#45;&gt;AdminModule -->
<g id="edge2" class="edge">
<title>CalendarComponent&#45;&gt;AdminModule</title>
<path fill="none" stroke="black" d="M1872,-84.97C1872,-106.3 1872,-138.8 1872,-138.8 1872,-138.8 1640.36,-138.8 1640.36,-138.8"/>
<polygon fill="black" stroke="black" points="1640.36,-135.3 1630.36,-138.8 1640.36,-142.3 1640.36,-135.3"/>
</g>
<!-- ChatsComponent -->
<g id="node3" class="node">
<title>ChatsComponent</title>
<polygon fill="#ffffb3" stroke="black" points="2542.72,-84.8 2429.28,-84.8 2429.28,-48.8 2542.72,-48.8 2542.72,-84.8"/>
<text text-anchor="middle" x="2486" y="-62.6" font-family="Times,serif" font-size="14.00">ChatsComponent</text>
</g>
<!-- ChatsComponent&#45;&gt;AdminModule -->
<g id="edge3" class="edge">
<title>ChatsComponent&#45;&gt;AdminModule</title>
<path fill="none" stroke="black" d="M2467.13,-84.81C2467.13,-109.22 2467.13,-149.8 2467.13,-149.8 2467.13,-149.8 1640.22,-149.8 1640.22,-149.8"/>
<polygon fill="black" stroke="black" points="1640.22,-146.3 1630.22,-149.8 1640.22,-153.3 1640.22,-146.3"/>
</g>
<!-- ChatsComponent&#45;&gt;DoctorantModule -->
<g id="edge31" class="edge">
<title>ChatsComponent&#45;&gt;DoctorantModule</title>
<path fill="none" stroke="black" d="M2504.87,-85.11C2504.87,-104.95 2504.87,-133.8 2504.87,-133.8 2504.87,-133.8 2976.3,-133.8 2976.3,-133.8"/>
<polygon fill="black" stroke="black" points="2976.3,-137.3 2986.3,-133.8 2976.3,-130.3 2976.3,-137.3"/>
</g>
<!-- CoursesComponent -->
<g id="node4" class="node">
<title>CoursesComponent</title>
<polygon fill="#ffffb3" stroke="black" points="2954.44,-84.8 2827.56,-84.8 2827.56,-48.8 2954.44,-48.8 2954.44,-84.8"/>
<text text-anchor="middle" x="2891" y="-62.6" font-family="Times,serif" font-size="14.00">CoursesComponent</text>
</g>
<!-- CoursesComponent&#45;&gt;AdminModule -->
<g id="edge4" class="edge">
<title>CoursesComponent&#45;&gt;AdminModule</title>
<path fill="none" stroke="black" d="M2869.93,-84.98C2869.93,-111.79 2869.93,-158.8 2869.93,-158.8 2869.93,-158.8 1640.34,-158.8 1640.34,-158.8"/>
<polygon fill="black" stroke="black" points="1640.34,-155.3 1630.34,-158.8 1640.34,-162.3 1640.34,-155.3"/>
</g>
<!-- PublicModule -->
<g id="node40" class="node">
<title>PublicModule</title>
<polygon fill="#8dd3c7" stroke="black" points="3738.83,-160.8 3735.83,-164.8 3714.83,-164.8 3711.83,-160.8 3643.17,-160.8 3643.17,-124.8 3738.83,-124.8 3738.83,-160.8"/>
<text text-anchor="middle" x="3691" y="-138.6" font-family="Times,serif" font-size="14.00">PublicModule</text>
</g>
<!-- CoursesComponent&#45;&gt;PublicModule -->
<g id="edge36" class="edge">
<title>CoursesComponent&#45;&gt;PublicModule</title>
<path fill="none" stroke="black" d="M2912.07,-84.91C2912.07,-94.7 2912.07,-104.8 2912.07,-104.8 2912.07,-104.8 3675.11,-104.8 3675.11,-104.8 3675.11,-104.8 3675.11,-114.69 3675.11,-114.69"/>
<polygon fill="black" stroke="black" points="3671.61,-114.69 3675.11,-124.69 3678.61,-114.69 3671.61,-114.69"/>
</g>
<!-- CreateDoctorantComponent -->
<g id="node5" class="node">
<title>CreateDoctorantComponent</title>
<polygon fill="#ffffb3" stroke="black" points="1499.84,-84.8 1326.16,-84.8 1326.16,-48.8 1499.84,-48.8 1499.84,-84.8"/>
<text text-anchor="middle" x="1413" y="-62.6" font-family="Times,serif" font-size="14.00">CreateDoctorantComponent</text>
</g>
<!-- CreateDoctorantComponent&#45;&gt;AdminModule -->
<g id="edge5" class="edge">
<title>CreateDoctorantComponent&#45;&gt;AdminModule</title>
<path fill="none" stroke="black" d="M1413,-85.07C1413,-103.36 1413,-128.8 1413,-128.8 1413,-128.8 1521.5,-128.8 1521.5,-128.8"/>
<polygon fill="black" stroke="black" points="1521.5,-132.3 1531.5,-128.8 1521.5,-125.3 1521.5,-132.3"/>
</g>
<!-- CreateFormationComponent -->
<g id="node6" class="node">
<title>CreateFormationComponent</title>
<polygon fill="#ffffb3" stroke="black" points="1308.19,-84.8 1131.81,-84.8 1131.81,-48.8 1308.19,-48.8 1308.19,-84.8"/>
<text text-anchor="middle" x="1220" y="-62.6" font-family="Times,serif" font-size="14.00">CreateFormationComponent</text>
</g>
<!-- CreateFormationComponent&#45;&gt;AdminModule -->
<g id="edge6" class="edge">
<title>CreateFormationComponent&#45;&gt;AdminModule</title>
<path fill="none" stroke="black" d="M1220,-84.83C1220,-104.38 1220,-132.8 1220,-132.8 1220,-132.8 1521.56,-132.8 1521.56,-132.8"/>
<polygon fill="black" stroke="black" points="1521.56,-136.3 1531.56,-132.8 1521.56,-129.3 1521.56,-136.3"/>
</g>
<!-- CreateNewsComponent -->
<g id="node7" class="node">
<title>CreateNewsComponent</title>
<polygon fill="#ffffb3" stroke="black" points="1113.75,-84.8 964.25,-84.8 964.25,-48.8 1113.75,-48.8 1113.75,-84.8"/>
<text text-anchor="middle" x="1039" y="-62.6" font-family="Times,serif" font-size="14.00">CreateNewsComponent</text>
</g>
<!-- CreateNewsComponent&#45;&gt;AdminModule -->
<g id="edge7" class="edge">
<title>CreateNewsComponent&#45;&gt;AdminModule</title>
<path fill="none" stroke="black" d="M1039,-84.93C1039,-105.37 1039,-135.8 1039,-135.8 1039,-135.8 1521.46,-135.8 1521.46,-135.8"/>
<polygon fill="black" stroke="black" points="1521.46,-139.3 1531.46,-135.8 1521.46,-132.3 1521.46,-139.3"/>
</g>
<!-- DashboardComponent -->
<g id="node8" class="node">
<title>DashboardComponent</title>
<polygon fill="#ffffb3" stroke="black" points="945.98,-84.8 804.02,-84.8 804.02,-48.8 945.98,-48.8 945.98,-84.8"/>
<text text-anchor="middle" x="875" y="-62.6" font-family="Times,serif" font-size="14.00">DashboardComponent</text>
</g>
<!-- DashboardComponent&#45;&gt;AdminModule -->
<g id="edge8" class="edge">
<title>DashboardComponent&#45;&gt;AdminModule</title>
<path fill="none" stroke="black" d="M875,-84.84C875,-106.46 875,-139.8 875,-139.8 875,-139.8 1521.64,-139.8 1521.64,-139.8"/>
<polygon fill="black" stroke="black" points="1521.64,-143.3 1531.64,-139.8 1521.64,-136.3 1521.64,-143.3"/>
</g>
<!-- DatabaseComponent -->
<g id="node9" class="node">
<title>DatabaseComponent</title>
<polygon fill="#ffffb3" stroke="black" points="786.14,-84.8 653.86,-84.8 653.86,-48.8 786.14,-48.8 786.14,-84.8"/>
<text text-anchor="middle" x="720" y="-62.6" font-family="Times,serif" font-size="14.00">DatabaseComponent</text>
</g>
<!-- DatabaseComponent&#45;&gt;AdminModule -->
<g id="edge9" class="edge">
<title>DatabaseComponent&#45;&gt;AdminModule</title>
<path fill="none" stroke="black" d="M720,-84.81C720,-107.29 720,-142.8 720,-142.8 720,-142.8 1521.62,-142.8 1521.62,-142.8"/>
<polygon fill="black" stroke="black" points="1521.62,-146.3 1531.62,-142.8 1521.62,-139.3 1521.62,-146.3"/>
</g>
<!-- HeaderComponent -->
<g id="node10" class="node">
<title>HeaderComponent</title>
<polygon fill="#ffffb3" stroke="black" points="635.75,-84.8 514.25,-84.8 514.25,-48.8 635.75,-48.8 635.75,-84.8"/>
<text text-anchor="middle" x="575" y="-62.6" font-family="Times,serif" font-size="14.00">HeaderComponent</text>
</g>
<!-- HeaderComponent&#45;&gt;AdminModule -->
<g id="edge10" class="edge">
<title>HeaderComponent&#45;&gt;AdminModule</title>
<path fill="none" stroke="black" d="M575,-84.95C575,-108.56 575,-146.8 575,-146.8 575,-146.8 1521.46,-146.8 1521.46,-146.8"/>
<polygon fill="black" stroke="black" points="1521.46,-150.3 1531.46,-146.8 1521.46,-143.3 1521.46,-150.3"/>
</g>
<!-- ListDoctorantComponent -->
<g id="node11" class="node">
<title>ListDoctorantComponent</title>
<polygon fill="#ffffb3" stroke="black" points="496.59,-84.8 337.41,-84.8 337.41,-48.8 496.59,-48.8 496.59,-84.8"/>
<text text-anchor="middle" x="417" y="-62.6" font-family="Times,serif" font-size="14.00">ListDoctorantComponent</text>
</g>
<!-- ListDoctorantComponent&#45;&gt;AdminModule -->
<g id="edge11" class="edge">
<title>ListDoctorantComponent&#45;&gt;AdminModule</title>
<path fill="none" stroke="black" d="M417,-85.03C417,-109.73 417,-150.8 417,-150.8 417,-150.8 1521.73,-150.8 1521.73,-150.8"/>
<polygon fill="black" stroke="black" points="1521.73,-154.3 1531.73,-150.8 1521.73,-147.3 1521.73,-154.3"/>
</g>
<!-- ListProfComponent -->
<g id="node12" class="node">
<title>ListProfComponent</title>
<polygon fill="#ffffb3" stroke="black" points="319.72,-84.8 192.28,-84.8 192.28,-48.8 319.72,-48.8 319.72,-84.8"/>
<text text-anchor="middle" x="256" y="-62.6" font-family="Times,serif" font-size="14.00">ListProfComponent</text>
</g>
<!-- ListProfComponent&#45;&gt;AdminModule -->
<g id="edge12" class="edge">
<title>ListProfComponent&#45;&gt;AdminModule</title>
<path fill="none" stroke="black" d="M256,-84.83C256,-110.31 256,-153.8 256,-153.8 256,-153.8 1521.48,-153.8 1521.48,-153.8"/>
<polygon fill="black" stroke="black" points="1521.48,-157.3 1531.48,-153.8 1521.48,-150.3 1521.48,-157.3"/>
</g>
<!-- ListStaffComponent -->
<g id="node13" class="node">
<title>ListStaffComponent</title>
<polygon fill="#ffffb3" stroke="black" points="2411.32,-84.8 2280.68,-84.8 2280.68,-48.8 2411.32,-48.8 2411.32,-84.8"/>
<text text-anchor="middle" x="2346" y="-62.6" font-family="Times,serif" font-size="14.00">ListStaffComponent</text>
</g>
<!-- ListStaffComponent&#45;&gt;AdminModule -->
<g id="edge13" class="edge">
<title>ListStaffComponent&#45;&gt;AdminModule</title>
<path fill="none" stroke="black" d="M2346,-85.18C2346,-109.08 2346,-147.8 2346,-147.8 2346,-147.8 1640.31,-147.8 1640.31,-147.8"/>
<polygon fill="black" stroke="black" points="1640.31,-144.3 1630.31,-147.8 1640.31,-151.3 1640.31,-144.3"/>
</g>
<!-- ResumeComponent -->
<g id="node14" class="node">
<title>ResumeComponent</title>
<polygon fill="#ffffb3" stroke="black" points="2263.44,-84.8 2136.56,-84.8 2136.56,-48.8 2263.44,-48.8 2263.44,-84.8"/>
<text text-anchor="middle" x="2200" y="-62.6" font-family="Times,serif" font-size="14.00">ResumeComponent</text>
</g>
<!-- ResumeComponent&#45;&gt;AdminModule -->
<g id="edge14" class="edge">
<title>ResumeComponent&#45;&gt;AdminModule</title>
<path fill="none" stroke="black" d="M2200,-84.89C2200,-107.93 2200,-144.8 2200,-144.8 2200,-144.8 1640.35,-144.8 1640.35,-144.8"/>
<polygon fill="black" stroke="black" points="1640.35,-141.3 1630.35,-144.8 1640.35,-148.3 1640.35,-141.3"/>
</g>
<!-- ScreenComponent -->
<g id="node15" class="node">
<title>ScreenComponent</title>
<polygon fill="#ffffb3" stroke="black" points="2809.92,-84.8 2690.08,-84.8 2690.08,-48.8 2809.92,-48.8 2809.92,-84.8"/>
<text text-anchor="middle" x="2750" y="-62.6" font-family="Times,serif" font-size="14.00">ScreenComponent</text>
</g>
<!-- ScreenComponent&#45;&gt;AdminModule -->
<g id="edge15" class="edge">
<title>ScreenComponent&#45;&gt;AdminModule</title>
<path fill="none" stroke="black" d="M2730.1,-84.81C2730.1,-110.82 2730.1,-155.8 2730.1,-155.8 2730.1,-155.8 1640.38,-155.8 1640.38,-155.8"/>
<polygon fill="black" stroke="black" points="1640.38,-152.3 1630.38,-155.8 1640.38,-159.3 1640.38,-152.3"/>
</g>
<!-- ScreenComponent&#45;&gt;DoctorantModule -->
<g id="edge33" class="edge">
<title>ScreenComponent&#45;&gt;DoctorantModule</title>
<path fill="none" stroke="black" d="M2769.9,-85.1C2769.9,-103.07 2769.9,-127.8 2769.9,-127.8 2769.9,-127.8 2976.21,-127.8 2976.21,-127.8"/>
<polygon fill="black" stroke="black" points="2976.21,-131.3 2986.21,-127.8 2976.21,-124.3 2976.21,-131.3"/>
</g>
<!-- SettingsComponent -->
<g id="node16" class="node">
<title>SettingsComponent</title>
<polygon fill="#ffffb3" stroke="black" points="1788.45,-84.8 1661.55,-84.8 1661.55,-48.8 1788.45,-48.8 1788.45,-84.8"/>
<text text-anchor="middle" x="1725" y="-62.6" font-family="Times,serif" font-size="14.00">SettingsComponent</text>
</g>
<!-- SettingsComponent&#45;&gt;AdminModule -->
<g id="edge16" class="edge">
<title>SettingsComponent&#45;&gt;AdminModule</title>
<path fill="none" stroke="black" d="M1725,-84.83C1725,-105.57 1725,-136.8 1725,-136.8 1725,-136.8 1640.56,-136.8 1640.56,-136.8"/>
<polygon fill="black" stroke="black" points="1640.56,-133.3 1630.56,-136.8 1640.56,-140.3 1640.56,-133.3"/>
</g>
<!-- SidenavComponent -->
<g id="node17" class="node">
<title>SidenavComponent</title>
<polygon fill="#ffffb3" stroke="black" points="1644.44,-84.8 1517.56,-84.8 1517.56,-48.8 1644.44,-48.8 1644.44,-84.8"/>
<text text-anchor="middle" x="1581" y="-62.6" font-family="Times,serif" font-size="14.00">SidenavComponent</text>
</g>
<!-- SidenavComponent&#45;&gt;AdminModule -->
<g id="edge17" class="edge">
<title>SidenavComponent&#45;&gt;AdminModule</title>
<path fill="none" stroke="black" d="M1597.41,-84.81C1597.41,-84.81 1597.41,-114.65 1597.41,-114.65"/>
<polygon fill="black" stroke="black" points="1593.91,-114.65 1597.41,-124.65 1600.91,-114.65 1593.91,-114.65"/>
</g>
<!-- SidenavComponent&#45;&gt;AdminModule -->
<g id="edge18" class="edge">
<title>SidenavComponent&#45;&gt;AdminModule</title>
<path fill="none" stroke="black" d="M1564.59,-84.81C1564.59,-84.81 1564.59,-114.65 1564.59,-114.65"/>
<polygon fill="black" stroke="black" points="1561.09,-114.65 1564.59,-124.65 1568.09,-114.65 1561.09,-114.65"/>
</g>
<!-- SublevelMenuComponent -->
<g id="node18" class="node">
<title>SublevelMenuComponent</title>
<polygon fill="#ffffb3" stroke="black" points="2118.49,-84.8 1955.51,-84.8 1955.51,-48.8 2118.49,-48.8 2118.49,-84.8"/>
<text text-anchor="middle" x="2037" y="-62.6" font-family="Times,serif" font-size="14.00">SublevelMenuComponent</text>
</g>
<!-- SublevelMenuComponent&#45;&gt;AdminModule -->
<g id="edge19" class="edge">
<title>SublevelMenuComponent&#45;&gt;AdminModule</title>
<path fill="none" stroke="black" d="M2037,-84.96C2037,-107.15 2037,-141.8 2037,-141.8 2037,-141.8 1640.23,-141.8 1640.23,-141.8"/>
<polygon fill="black" stroke="black" points="1640.23,-138.3 1630.23,-141.8 1640.23,-145.3 1640.23,-138.3"/>
</g>
<!-- AdminRoutingModule -->
<g id="node20" class="node">
<title>AdminRoutingModule</title>
<polygon fill="#8dd3c7" stroke="black" points="167.56,-84.8 164.56,-88.8 143.56,-88.8 140.56,-84.8 24.44,-84.8 24.44,-48.8 167.56,-48.8 167.56,-84.8"/>
<text text-anchor="middle" x="96" y="-62.6" font-family="Times,serif" font-size="14.00">AdminRoutingModule</text>
</g>
<!-- AdminRoutingModule&#45;&gt;AdminModule -->
<g id="edge20" class="edge">
<title>AdminRoutingModule&#45;&gt;AdminModule</title>
<path fill="none" stroke="black" d="M96,-85.22C96,-111.81 96,-157.8 96,-157.8 96,-157.8 1521.59,-157.8 1521.59,-157.8"/>
<polygon fill="black" stroke="black" points="1521.59,-161.3 1531.59,-157.8 1521.59,-154.3 1521.59,-161.3"/>
</g>
<!-- AppComponent -->
<g id="node21" class="node">
<title>AppComponent</title>
<polygon fill="#ffffb3" stroke="black" points="4620.94,-160.8 4515.06,-160.8 4515.06,-124.8 4620.94,-124.8 4620.94,-160.8"/>
<text text-anchor="middle" x="4568" y="-138.6" font-family="Times,serif" font-size="14.00">AppComponent</text>
</g>
<!-- AppModule -->
<g id="node22" class="node">
<title>AppModule</title>
<polygon fill="#8dd3c7" stroke="black" points="4468.66,-225.8 4465.66,-229.8 4444.66,-229.8 4441.66,-225.8 4385.34,-225.8 4385.34,-189.8 4468.66,-189.8 4468.66,-225.8"/>
<text text-anchor="middle" x="4427" y="-203.6" font-family="Times,serif" font-size="14.00">AppModule</text>
</g>
<!-- AppComponent&#45;&gt;AppModule -->
<g id="edge21" class="edge">
<title>AppComponent&#45;&gt;AppModule</title>
<path fill="none" stroke="black" d="M4568,-160.91C4568,-180.14 4568,-207.8 4568,-207.8 4568,-207.8 4478.92,-207.8 4478.92,-207.8"/>
<polygon fill="black" stroke="black" points="4478.92,-204.3 4468.92,-207.8 4478.92,-211.3 4478.92,-204.3"/>
</g>
<!-- AppComponent  -->
<g id="node25" class="node">
<title>AppComponent </title>
<polygon fill="#80b1d3" stroke="black" points="4481.44,-293.8 4372.56,-293.8 4372.56,-257.8 4481.44,-257.8 4481.44,-293.8"/>
<text text-anchor="middle" x="4427" y="-271.6" font-family="Times,serif" font-size="14.00">AppComponent </text>
</g>
<!-- AppModule&#45;&gt;AppComponent  -->
<g id="edge24" class="edge">
<title>AppModule&#45;&gt;AppComponent </title>
<path fill="none" stroke="black" stroke-dasharray="1,5" d="M4427,-226.02C4427,-226.02 4427,-247.53 4427,-247.53"/>
<polygon fill="black" stroke="black" points="4423.5,-247.53 4427,-257.53 4430.5,-247.53 4423.5,-247.53"/>
</g>
<!-- AppRoutingModule -->
<g id="node23" class="node">
<title>AppRoutingModule</title>
<polygon fill="#8dd3c7" stroke="black" points="4491.28,-160.8 4488.28,-164.8 4467.28,-164.8 4464.28,-160.8 4362.72,-160.8 4362.72,-124.8 4491.28,-124.8 4491.28,-160.8"/>
<text text-anchor="middle" x="4427" y="-138.6" font-family="Times,serif" font-size="14.00">AppRoutingModule</text>
</g>
<!-- AppRoutingModule&#45;&gt;AppModule -->
<g id="edge22" class="edge">
<title>AppRoutingModule&#45;&gt;AppModule</title>
<path fill="none" stroke="black" d="M4427,-160.91C4427,-160.91 4427,-179.79 4427,-179.79"/>
<polygon fill="black" stroke="black" points="4423.5,-179.79 4427,-189.79 4430.5,-179.79 4423.5,-179.79"/>
</g>
<!-- CoreModule -->
<g id="node24" class="node">
<title>CoreModule</title>
<polygon fill="#8dd3c7" stroke="black" points="4344.27,-160.8 4341.27,-164.8 4320.27,-164.8 4317.27,-160.8 4257.73,-160.8 4257.73,-124.8 4344.27,-124.8 4344.27,-160.8"/>
<text text-anchor="middle" x="4301" y="-138.6" font-family="Times,serif" font-size="14.00">CoreModule</text>
</g>
<!-- CoreModule&#45;&gt;AppModule -->
<g id="edge23" class="edge">
<title>CoreModule&#45;&gt;AppModule</title>
<path fill="none" stroke="black" d="M4301,-160.91C4301,-180.14 4301,-207.8 4301,-207.8 4301,-207.8 4375.04,-207.8 4375.04,-207.8"/>
<polygon fill="black" stroke="black" points="4375.04,-211.3 4385.04,-207.8 4375.04,-204.3 4375.04,-211.3"/>
</g>
<!-- LoginComponent -->
<g id="node26" class="node">
<title>LoginComponent</title>
<polygon fill="#ffffb3" stroke="black" points="5071.27,-84.8 4956.73,-84.8 4956.73,-48.8 5071.27,-48.8 5071.27,-84.8"/>
<text text-anchor="middle" x="5014" y="-62.6" font-family="Times,serif" font-size="14.00">LoginComponent</text>
</g>
<!-- AuthModule -->
<g id="node29" class="node">
<title>AuthModule</title>
<polygon fill="#8dd3c7" stroke="black" points="4989.55,-160.8 4986.55,-164.8 4965.55,-164.8 4962.55,-160.8 4902.45,-160.8 4902.45,-124.8 4989.55,-124.8 4989.55,-160.8"/>
<text text-anchor="middle" x="4946" y="-138.6" font-family="Times,serif" font-size="14.00">AuthModule</text>
</g>
<!-- LoginComponent&#45;&gt;AuthModule -->
<g id="edge25" class="edge">
<title>LoginComponent&#45;&gt;AuthModule</title>
<path fill="none" stroke="black" d="M4973.19,-84.81C4973.19,-84.81 4973.19,-114.65 4973.19,-114.65"/>
<polygon fill="black" stroke="black" points="4969.69,-114.65 4973.19,-124.65 4976.69,-114.65 4969.69,-114.65"/>
</g>
<!-- LogoutComponent -->
<g id="node27" class="node">
<title>LogoutComponent</title>
<polygon fill="#ffffb3" stroke="black" points="4938.77,-84.8 4817.23,-84.8 4817.23,-48.8 4938.77,-48.8 4938.77,-84.8"/>
<text text-anchor="middle" x="4878" y="-62.6" font-family="Times,serif" font-size="14.00">LogoutComponent</text>
</g>
<!-- LogoutComponent&#45;&gt;AuthModule -->
<g id="edge26" class="edge">
<title>LogoutComponent&#45;&gt;AuthModule</title>
<path fill="none" stroke="black" d="M4920.56,-84.81C4920.56,-84.81 4920.56,-114.65 4920.56,-114.65"/>
<polygon fill="black" stroke="black" points="4917.06,-114.65 4920.56,-124.65 4924.06,-114.65 4917.06,-114.65"/>
</g>
<!-- SignupComponent -->
<g id="node28" class="node">
<title>SignupComponent</title>
<polygon fill="#ffffb3" stroke="black" points="5210.51,-84.8 5089.49,-84.8 5089.49,-48.8 5210.51,-48.8 5210.51,-84.8"/>
<text text-anchor="middle" x="5150" y="-62.6" font-family="Times,serif" font-size="14.00">SignupComponent</text>
</g>
<!-- SignupComponent&#45;&gt;AuthModule -->
<g id="edge27" class="edge">
<title>SignupComponent&#45;&gt;AuthModule</title>
<path fill="none" stroke="black" d="M5150,-84.81C5150,-107.29 5150,-142.8 5150,-142.8 5150,-142.8 4999.76,-142.8 4999.76,-142.8"/>
<polygon fill="black" stroke="black" points="4999.76,-139.3 4989.76,-142.8 4999.76,-146.3 4999.76,-139.3"/>
</g>
<!-- AuthRoutingModule -->
<g id="node30" class="node">
<title>AuthRoutingModule</title>
<polygon fill="#8dd3c7" stroke="black" points="4793.17,-84.8 4790.17,-88.8 4769.17,-88.8 4766.17,-84.8 4660.83,-84.8 4660.83,-48.8 4793.17,-48.8 4793.17,-84.8"/>
<text text-anchor="middle" x="4727" y="-62.6" font-family="Times,serif" font-size="14.00">AuthRoutingModule</text>
</g>
<!-- AuthRoutingModule&#45;&gt;AuthModule -->
<g id="edge28" class="edge">
<title>AuthRoutingModule&#45;&gt;AuthModule</title>
<path fill="none" stroke="black" d="M4727,-84.81C4727,-107.29 4727,-142.8 4727,-142.8 4727,-142.8 4892.21,-142.8 4892.21,-142.8"/>
<polygon fill="black" stroke="black" points="4892.21,-146.3 4902.21,-142.8 4892.21,-139.3 4892.21,-146.3"/>
</g>
<!-- CoreRoutingModule -->
<g id="node31" class="node">
<title>CoreRoutingModule</title>
<polygon fill="#8dd3c7" stroke="black" points="4366.88,-84.8 4363.88,-88.8 4342.88,-88.8 4339.88,-84.8 4235.12,-84.8 4235.12,-48.8 4366.88,-48.8 4366.88,-84.8"/>
<text text-anchor="middle" x="4301" y="-62.6" font-family="Times,serif" font-size="14.00">CoreRoutingModule</text>
</g>
<!-- CoreRoutingModule&#45;&gt;CoreModule -->
<g id="edge29" class="edge">
<title>CoreRoutingModule&#45;&gt;CoreModule</title>
<path fill="none" stroke="black" d="M4301,-84.81C4301,-84.81 4301,-114.65 4301,-114.65"/>
<polygon fill="black" stroke="black" points="4297.5,-114.65 4301,-124.65 4304.5,-114.65 4297.5,-114.65"/>
</g>
<!-- ProfilComponent -->
<g id="node32" class="node">
<title>ProfilComponent</title>
<polygon fill="#ffffb3" stroke="black" points="3291.72,-84.8 3178.28,-84.8 3178.28,-48.8 3291.72,-48.8 3291.72,-84.8"/>
<text text-anchor="middle" x="3235" y="-62.6" font-family="Times,serif" font-size="14.00">ProfilComponent</text>
</g>
<!-- ProfilComponent&#45;&gt;DoctorantModule -->
<g id="edge32" class="edge">
<title>ProfilComponent&#45;&gt;DoctorantModule</title>
<path fill="none" stroke="black" d="M3235,-85.11C3235,-104.95 3235,-133.8 3235,-133.8 3235,-133.8 3111.57,-133.8 3111.57,-133.8"/>
<polygon fill="black" stroke="black" points="3111.57,-130.3 3101.57,-133.8 3111.57,-137.3 3111.57,-130.3"/>
</g>
<!-- DoctorantRoutingModule -->
<g id="node34" class="node">
<title>DoctorantRoutingModule</title>
<polygon fill="#8dd3c7" stroke="black" points="3154.15,-84.8 3151.15,-88.8 3130.15,-88.8 3127.15,-84.8 2993.85,-84.8 2993.85,-48.8 3154.15,-48.8 3154.15,-84.8"/>
<text text-anchor="middle" x="3074" y="-62.6" font-family="Times,serif" font-size="14.00">DoctorantRoutingModule</text>
</g>
<!-- DoctorantRoutingModule&#45;&gt;DoctorantModule -->
<g id="edge34" class="edge">
<title>DoctorantRoutingModule&#45;&gt;DoctorantModule</title>
<path fill="none" stroke="black" d="M3047.72,-84.81C3047.72,-84.81 3047.72,-114.65 3047.72,-114.65"/>
<polygon fill="black" stroke="black" points="3044.22,-114.65 3047.72,-124.65 3051.22,-114.65 3044.22,-114.65"/>
</g>
<!-- AboutComponent -->
<g id="node35" class="node">
<title>AboutComponent</title>
<polygon fill="#ffffb3" stroke="black" points="3612.33,-84.8 3495.67,-84.8 3495.67,-48.8 3612.33,-48.8 3612.33,-84.8"/>
<text text-anchor="middle" x="3554" y="-62.6" font-family="Times,serif" font-size="14.00">AboutComponent</text>
</g>
<!-- AboutComponent&#45;&gt;PublicModule -->
<g id="edge35" class="edge">
<title>AboutComponent&#45;&gt;PublicModule</title>
<path fill="none" stroke="black" d="M3554,-84.81C3554,-107.29 3554,-142.8 3554,-142.8 3554,-142.8 3633.08,-142.8 3633.08,-142.8"/>
<polygon fill="black" stroke="black" points="3633.08,-146.3 3643.08,-142.8 3633.08,-139.3 3633.08,-146.3"/>
</g>
<!-- FooterComponent -->
<g id="node36" class="node">
<title>FooterComponent</title>
<polygon fill="#ffffb3" stroke="black" points="4194.88,-84.8 4077.12,-84.8 4077.12,-48.8 4194.88,-48.8 4194.88,-84.8"/>
<text text-anchor="middle" x="4136" y="-62.6" font-family="Times,serif" font-size="14.00">FooterComponent</text>
</g>
<!-- FooterComponent&#45;&gt;PublicModule -->
<g id="edge37" class="edge">
<title>FooterComponent&#45;&gt;PublicModule</title>
<path fill="none" stroke="black" d="M4136,-84.83C4136,-109.78 4136,-151.8 4136,-151.8 4136,-151.8 3749.05,-151.8 3749.05,-151.8"/>
<polygon fill="black" stroke="black" points="3749.05,-148.3 3739.05,-151.8 3749.05,-155.3 3749.05,-148.3"/>
</g>
<!-- HomeComponent -->
<g id="node37" class="node">
<title>HomeComponent</title>
<polygon fill="#ffffb3" stroke="black" points="4058.55,-84.8 3943.45,-84.8 3943.45,-48.8 4058.55,-48.8 4058.55,-84.8"/>
<text text-anchor="middle" x="4001" y="-62.6" font-family="Times,serif" font-size="14.00">HomeComponent</text>
</g>
<!-- HomeComponent&#45;&gt;PublicModule -->
<g id="edge38" class="edge">
<title>HomeComponent&#45;&gt;PublicModule</title>
<path fill="none" stroke="black" d="M4001,-84.81C4001,-107.29 4001,-142.8 4001,-142.8 4001,-142.8 3748.76,-142.8 3748.76,-142.8"/>
<polygon fill="black" stroke="black" points="3748.76,-139.3 3738.76,-142.8 3748.76,-146.3 3748.76,-139.3"/>
</g>
<!-- LandingPageComponent -->
<g id="node38" class="node">
<title>LandingPageComponent</title>
<polygon fill="#ffffb3" stroke="black" points="3925.7,-84.8 3770.3,-84.8 3770.3,-48.8 3925.7,-48.8 3925.7,-84.8"/>
<text text-anchor="middle" x="3848" y="-62.6" font-family="Times,serif" font-size="14.00">LandingPageComponent</text>
</g>
<!-- LandingPageComponent&#45;&gt;PublicModule -->
<g id="edge39" class="edge">
<title>LandingPageComponent&#45;&gt;PublicModule</title>
<path fill="none" stroke="black" d="M3848,-85.11C3848,-104.95 3848,-133.8 3848,-133.8 3848,-133.8 3748.96,-133.8 3748.96,-133.8"/>
<polygon fill="black" stroke="black" points="3748.96,-130.3 3738.96,-133.8 3748.96,-137.3 3748.96,-130.3"/>
</g>
<!-- NavbarComponent -->
<g id="node39" class="node">
<title>NavbarComponent</title>
<polygon fill="#ffffb3" stroke="black" points="3752.03,-84.8 3629.97,-84.8 3629.97,-48.8 3752.03,-48.8 3752.03,-84.8"/>
<text text-anchor="middle" x="3691" y="-62.6" font-family="Times,serif" font-size="14.00">NavbarComponent</text>
</g>
<!-- NavbarComponent&#45;&gt;PublicModule -->
<g id="edge40" class="edge">
<title>NavbarComponent&#45;&gt;PublicModule</title>
<path fill="none" stroke="black" d="M3706.89,-84.81C3706.89,-84.81 3706.89,-114.65 3706.89,-114.65"/>
<polygon fill="black" stroke="black" points="3703.39,-114.65 3706.89,-124.65 3710.39,-114.65 3703.39,-114.65"/>
</g>
<!-- NavbarComponent  -->
<g id="node42" class="node">
<title>NavbarComponent </title>
<polygon fill="#fb8072" stroke="black" points="3754.03,-225.8 3627.97,-225.8 3627.97,-189.8 3754.03,-189.8 3754.03,-225.8"/>
<text text-anchor="middle" x="3691" y="-203.6" font-family="Times,serif" font-size="14.00">NavbarComponent </text>
</g>
<!-- PublicModule&#45;&gt;NavbarComponent  -->
<g id="edge42" class="edge">
<title>PublicModule&#45;&gt;NavbarComponent </title>
<path fill="none" stroke="black" stroke-dasharray="5,2" d="M3691,-160.91C3691,-160.91 3691,-179.79 3691,-179.79"/>
<polygon fill="black" stroke="black" points="3687.5,-179.79 3691,-189.79 3694.5,-179.79 3687.5,-179.79"/>
</g>
<!-- PublicRoutingModule -->
<g id="node41" class="node">
<title>PublicRoutingModule</title>
<polygon fill="#8dd3c7" stroke="black" points="3472.45,-84.8 3469.45,-88.8 3448.45,-88.8 3445.45,-84.8 3331.55,-84.8 3331.55,-48.8 3472.45,-48.8 3472.45,-84.8"/>
<text text-anchor="middle" x="3402" y="-62.6" font-family="Times,serif" font-size="14.00">PublicRoutingModule</text>
</g>
<!-- PublicRoutingModule&#45;&gt;PublicModule -->
<g id="edge41" class="edge">
<title>PublicRoutingModule&#45;&gt;PublicModule</title>
<path fill="none" stroke="black" d="M3402,-84.83C3402,-109.78 3402,-151.8 3402,-151.8 3402,-151.8 3633.28,-151.8 3633.28,-151.8"/>
<polygon fill="black" stroke="black" points="3633.28,-155.3 3643.28,-151.8 3633.28,-148.3 3633.28,-155.3"/>
</g>
</g>
</svg>
