<?xml version="1.0" encoding="UTF-8" standalone="no"?>
<!DOCTYPE svg PUBLIC "-//W3C//DTD SVG 1.1//EN"
 "http://www.w3.org/Graphics/SVG/1.1/DTD/svg11.dtd">
<!-- Generated by graphviz version 5.0.0 (20220707.1540)
 -->
<!-- Title: dependencies Pages: 1 -->
<svg width="5271pt" height="326pt"
 viewBox="0.00 0.00 5271.00 325.80" xmlns="http://www.w3.org/2000/svg" xmlns:xlink="http://www.w3.org/1999/xlink">
<g id="graph0" class="graph" transform="scale(1 1) rotate(0) translate(4 321.8)">
<title>dependencies</title>
<polygon fill="white" stroke="transparent" points="-4,4 -4,-321.8 5267,-321.8 5267,4 -4,4"/>
<text text-anchor="middle" x="2631.5" y="-8.2" font-family="sans-serif" font-size="14.00">dependencies</text>
<g id="clust1" class="cluster">
<title>cluster_AdminModule</title>
<polygon fill="none" stroke="black" stroke-dasharray="1,5" points="8,-32.8 8,-168.8 2980,-168.8 2980,-32.8 8,-32.8"/>
</g>
<g id="clust2" class="cluster">
<title>cluster_AdminModule_declarations</title>
<polygon fill="none" stroke="black" points="184,-40.8 184,-92.8 2972,-92.8 2972,-40.8 184,-40.8"/>
</g>
<g id="clust21" class="cluster">
<title>cluster_AdminModule_imports</title>
<polygon fill="none" stroke="black" points="16,-40.8 16,-92.8 176,-92.8 176,-40.8 16,-40.8"/>
</g>
<g id="clust31" class="cluster">
<title>cluster_AppModule</title>
<polygon fill="none" stroke="black" stroke-dasharray="1,5" points="3367,-108.8 3367,-309.8 3762,-309.8 3762,-108.8 3367,-108.8"/>
</g>
<g id="clust32" class="cluster">
<title>cluster_AppModule_declarations</title>
<polygon fill="none" stroke="black" points="3632,-116.8 3632,-168.8 3754,-168.8 3754,-116.8 3632,-116.8"/>
</g>
<g id="clust34" class="cluster">
<title>cluster_AppModule_imports</title>
<polygon fill="none" stroke="black" points="3375,-116.8 3375,-168.8 3624,-168.8 3624,-116.8 3375,-116.8"/>
</g>
<g id="clust36" class="cluster">
<title>cluster_AppModule_bootstrap</title>
<polygon fill="none" stroke="black" points="3490,-249.8 3490,-301.8 3614,-301.8 3614,-249.8 3490,-249.8"/>
</g>
<g id="clust44" class="cluster">
<title>cluster_AuthModule</title>
<polygon fill="none" stroke="black" stroke-dasharray="1,5" points="3770,-32.8 3770,-168.8 4352,-168.8 4352,-32.8 3770,-32.8"/>
</g>
<g id="clust45" class="cluster">
<title>cluster_AuthModule_declarations</title>
<polygon fill="none" stroke="black" points="3934,-40.8 3934,-92.8 4344,-92.8 4344,-40.8 3934,-40.8"/>
</g>
<g id="clust49" class="cluster">
<title>cluster_AuthModule_imports</title>
<polygon fill="none" stroke="black" points="3778,-40.8 3778,-92.8 3926,-92.8 3926,-40.8 3778,-40.8"/>
</g>
<g id="clust59" class="cluster">
<title>cluster_CoreModule</title>
<polygon fill="none" stroke="black" stroke-dasharray="1,5" points="3344,-32.8 3344,-100.8 3508,-100.8 3508,-32.8 3344,-32.8"/>
</g>
<g id="clust61" class="cluster">
<title>cluster_CoreModule_imports</title>
<polygon fill="none" stroke="black" points="3352,-40.8 3352,-92.8 3500,-92.8 3500,-40.8 3352,-40.8"/>
</g>
<g id="clust71" class="cluster">
<title>cluster_DoctorantModule</title>
<polygon fill="none" stroke="black" stroke-dasharray="1,5" points="2988,-32.8 2988,-168.8 3336,-168.8 3336,-32.8 2988,-32.8"/>
</g>
<g id="clust72" class="cluster">
<title>cluster_DoctorantModule_declarations</title>
<polygon fill="none" stroke="black" points="3180,-40.8 3180,-92.8 3328,-92.8 3328,-40.8 3180,-40.8"/>
</g>
<g id="clust77" class="cluster">
<title>cluster_DoctorantModule_imports</title>
<polygon fill="none" stroke="black" points="2996,-40.8 2996,-92.8 3172,-92.8 3172,-40.8 2996,-40.8"/>
</g>
<g id="clust87" class="cluster">
<title>cluster_PublicModule</title>
<polygon fill="none" stroke="black" stroke-dasharray="1,5" points="4360,-32.8 4360,-241.8 5255,-241.8 5255,-32.8 4360,-32.8"/>
</g>
<g id="clust88" class="cluster">
<title>cluster_PublicModule_declarations</title>
<polygon fill="none" stroke="black" points="4532,-40.8 4532,-92.8 5247,-92.8 5247,-40.8 4532,-40.8"/>
</g>
<g id="clust94" class="cluster">
<title>cluster_PublicModule_imports</title>
<polygon fill="none" stroke="black" points="4368,-40.8 4368,-92.8 4524,-92.8 4524,-40.8 4368,-40.8"/>
</g>
<g id="clust95" class="cluster">
<title>cluster_PublicModule_exports</title>
<polygon fill="none" stroke="black" points="4742,-181.8 4742,-233.8 4884,-233.8 4884,-181.8 4742,-181.8"/>
</g>
<!-- BodyComponent -->
<g id="node1" class="node">
<title>BodyComponent</title>
<polygon fill="#ffffb3" stroke="black" points="2667.67,-84.8 2556.33,-84.8 2556.33,-48.8 2667.67,-48.8 2667.67,-84.8"/>
<text text-anchor="middle" x="2612" y="-62.6" font-family="Times,serif" font-size="14.00">BodyComponent</text>
</g>
<!-- AdminModule -->
<g id="node19" class="node">
<title>AdminModule</title>
<polygon fill="#8dd3c7" stroke="black" points="1509.44,-160.8 1506.44,-164.8 1485.44,-164.8 1482.44,-160.8 1410.56,-160.8 1410.56,-124.8 1509.44,-124.8 1509.44,-160.8"/>
<text text-anchor="middle" x="1460" y="-138.6" font-family="Times,serif" font-size="14.00">AdminModule</text>
</g>
<!-- BodyComponent&#45;&gt;AdminModule -->
<g id="edge1" class="edge">
<title>BodyComponent&#45;&gt;AdminModule</title>
<path fill="none" stroke="black" d="M2593.39,-84.83C2593.39,-109.78 2593.39,-151.8 2593.39,-151.8 2593.39,-151.8 1519.43,-151.8 1519.43,-151.8"/>
<polygon fill="black" stroke="black" points="1519.43,-148.3 1509.43,-151.8 1519.43,-155.3 1519.43,-148.3"/>
</g>
<!-- DoctorantModule -->
<g id="node33" class="node">
<title>DoctorantModule</title>
<polygon fill="#8dd3c7" stroke="black" points="3111.53,-160.8 3108.53,-164.8 3087.53,-164.8 3084.53,-160.8 2996.47,-160.8 2996.47,-124.8 3111.53,-124.8 3111.53,-160.8"/>
<text text-anchor="middle" x="3054" y="-138.6" font-family="Times,serif" font-size="14.00">DoctorantModule</text>
</g>
<!-- BodyComponent&#45;&gt;DoctorantModule -->
<g id="edge30" class="edge">
<title>BodyComponent&#45;&gt;DoctorantModule</title>
<path fill="none" stroke="black" d="M2630.61,-84.97C2630.61,-103.89 2630.61,-130.8 2630.61,-130.8 2630.61,-130.8 2986.46,-130.8 2986.46,-130.8"/>
<polygon fill="black" stroke="black" points="2986.46,-134.3 2996.46,-130.8 2986.46,-127.3 2986.46,-134.3"/>
</g>
<!-- ChatsComponent -->
<g id="node2" class="node">
<title>ChatsComponent</title>
<polygon fill="#ffffb3" stroke="black" points="835.72,-84.8 722.28,-84.8 722.28,-48.8 835.72,-48.8 835.72,-84.8"/>
<text text-anchor="middle" x="779" y="-62.6" font-family="Times,serif" font-size="14.00">ChatsComponent</text>
</g>
<!-- ChatsComponent&#45;&gt;AdminModule -->
<g id="edge2" class="edge">
<title>ChatsComponent&#45;&gt;AdminModule</title>
<path fill="none" stroke="black" d="M779,-85.09C779,-107.01 779,-140.8 779,-140.8 779,-140.8 1400.75,-140.8 1400.75,-140.8"/>
<polygon fill="black" stroke="black" points="1400.75,-144.3 1410.75,-140.8 1400.75,-137.3 1400.75,-144.3"/>
</g>
<!-- CoursesComponent -->
<g id="node3" class="node">
<title>CoursesComponent</title>
<polygon fill="#ffffb3" stroke="black" points="704.44,-84.8 577.56,-84.8 577.56,-48.8 704.44,-48.8 704.44,-84.8"/>
<text text-anchor="middle" x="641" y="-62.6" font-family="Times,serif" font-size="14.00">CoursesComponent</text>
</g>
<!-- CoursesComponent&#45;&gt;AdminModule -->
<g id="edge3" class="edge">
<title>CoursesComponent&#45;&gt;AdminModule</title>
<path fill="none" stroke="black" d="M641,-84.89C641,-107.93 641,-144.8 641,-144.8 641,-144.8 1400.61,-144.8 1400.61,-144.8"/>
<polygon fill="black" stroke="black" points="1400.61,-148.3 1410.61,-144.8 1400.61,-141.3 1400.61,-148.3"/>
</g>
<!-- CreateDoctorantComponent -->
<g id="node4" class="node">
<title>CreateDoctorantComponent</title>
<polygon fill="#ffffb3" stroke="black" points="559.84,-84.8 386.16,-84.8 386.16,-48.8 559.84,-48.8 559.84,-84.8"/>
<text text-anchor="middle" x="473" y="-62.6" font-family="Times,serif" font-size="14.00">CreateDoctorantComponent</text>
</g>
<!-- CreateDoctorantComponent&#45;&gt;AdminModule -->
<g id="edge4" class="edge">
<title>CreateDoctorantComponent&#45;&gt;AdminModule</title>
<path fill="none" stroke="black" d="M473,-85C473,-109.16 473,-148.8 473,-148.8 473,-148.8 1400.72,-148.8 1400.72,-148.8"/>
<polygon fill="black" stroke="black" points="1400.72,-152.3 1410.72,-148.8 1400.72,-145.3 1400.72,-152.3"/>
</g>
<!-- CreateFormationComponent -->
<g id="node5" class="node">
<title>CreateFormationComponent</title>
<polygon fill="#ffffb3" stroke="black" points="368.19,-84.8 191.81,-84.8 191.81,-48.8 368.19,-48.8 368.19,-84.8"/>
<text text-anchor="middle" x="280" y="-62.6" font-family="Times,serif" font-size="14.00">CreateFormationComponent</text>
</g>
<!-- CreateFormationComponent&#45;&gt;AdminModule -->
<g id="edge5" class="edge">
<title>CreateFormationComponent&#45;&gt;AdminModule</title>
<path fill="none" stroke="black" d="M280,-85.04C280,-110.28 280,-152.8 280,-152.8 280,-152.8 1400.43,-152.8 1400.43,-152.8"/>
<polygon fill="black" stroke="black" points="1400.43,-156.3 1410.43,-152.8 1400.43,-149.3 1400.43,-156.3"/>
</g>
<!-- CreateNewsComponent -->
<g id="node6" class="node">
<title>CreateNewsComponent</title>
<polygon fill="#ffffb3" stroke="black" points="2537.75,-84.8 2388.25,-84.8 2388.25,-48.8 2537.75,-48.8 2537.75,-84.8"/>
<text text-anchor="middle" x="2463" y="-62.6" font-family="Times,serif" font-size="14.00">CreateNewsComponent</text>
</g>
<!-- CreateNewsComponent&#45;&gt;AdminModule -->
<g id="edge6" class="edge">
<title>CreateNewsComponent&#45;&gt;AdminModule</title>
<path fill="none" stroke="black" d="M2463,-85C2463,-109.16 2463,-148.8 2463,-148.8 2463,-148.8 1519.4,-148.8 1519.4,-148.8"/>
<polygon fill="black" stroke="black" points="1519.4,-145.3 1509.4,-148.8 1519.4,-152.3 1519.4,-145.3"/>
</g>
<!-- DashboardComponent -->
<g id="node7" class="node">
<title>DashboardComponent</title>
<polygon fill="#ffffb3" stroke="black" points="2369.98,-84.8 2228.02,-84.8 2228.02,-48.8 2369.98,-48.8 2369.98,-84.8"/>
<text text-anchor="middle" x="2299" y="-62.6" font-family="Times,serif" font-size="14.00">DashboardComponent</text>
</g>
<!-- DashboardComponent&#45;&gt;AdminModule -->
<g id="edge7" class="edge">
<title>DashboardComponent&#45;&gt;AdminModule</title>
<path fill="none" stroke="black" d="M2299,-85.12C2299,-108.46 2299,-145.8 2299,-145.8 2299,-145.8 1519.35,-145.8 1519.35,-145.8"/>
<polygon fill="black" stroke="black" points="1519.35,-142.3 1509.35,-145.8 1519.35,-149.3 1519.35,-142.3"/>
</g>
<!-- DatabaseComponent -->
<g id="node8" class="node">
<title>DatabaseComponent</title>
<polygon fill="#ffffb3" stroke="black" points="2210.14,-84.8 2077.86,-84.8 2077.86,-48.8 2210.14,-48.8 2210.14,-84.8"/>
<text text-anchor="middle" x="2144" y="-62.6" font-family="Times,serif" font-size="14.00">DatabaseComponent</text>
</g>
<!-- DatabaseComponent&#45;&gt;AdminModule -->
<g id="edge8" class="edge">
<title>DatabaseComponent&#45;&gt;AdminModule</title>
<path fill="none" stroke="black" d="M2144,-84.81C2144,-107.29 2144,-142.8 2144,-142.8 2144,-142.8 1519.47,-142.8 1519.47,-142.8"/>
<polygon fill="black" stroke="black" points="1519.47,-139.3 1509.47,-142.8 1519.47,-146.3 1519.47,-139.3"/>
</g>
<!-- HeaderComponent -->
<g id="node9" class="node">
<title>HeaderComponent</title>
<polygon fill="#ffffb3" stroke="black" points="2059.75,-84.8 1938.25,-84.8 1938.25,-48.8 2059.75,-48.8 2059.75,-84.8"/>
<text text-anchor="middle" x="1999" y="-62.6" font-family="Times,serif" font-size="14.00">HeaderComponent</text>
</g>
<!-- HeaderComponent&#45;&gt;AdminModule -->
<g id="edge9" class="edge">
<title>HeaderComponent&#45;&gt;AdminModule</title>
<path fill="none" stroke="black" d="M1999,-84.84C1999,-106.46 1999,-139.8 1999,-139.8 1999,-139.8 1519.26,-139.8 1519.26,-139.8"/>
<polygon fill="black" stroke="black" points="1519.26,-136.3 1509.26,-139.8 1519.26,-143.3 1519.26,-136.3"/>
</g>
<!-- ListDoctorantComponent -->
<g id="node10" class="node">
<title>ListDoctorantComponent</title>
<polygon fill="#ffffb3" stroke="black" points="1920.59,-84.8 1761.41,-84.8 1761.41,-48.8 1920.59,-48.8 1920.59,-84.8"/>
<text text-anchor="middle" x="1841" y="-62.6" font-family="Times,serif" font-size="14.00">ListDoctorantComponent</text>
</g>
<!-- ListDoctorantComponent&#45;&gt;AdminModule -->
<g id="edge10" class="edge">
<title>ListDoctorantComponent&#45;&gt;AdminModule</title>
<path fill="none" stroke="black" d="M1841,-84.83C1841,-105.57 1841,-136.8 1841,-136.8 1841,-136.8 1519.42,-136.8 1519.42,-136.8"/>
<polygon fill="black" stroke="black" points="1519.42,-133.3 1509.42,-136.8 1519.42,-140.3 1519.42,-133.3"/>
</g>
<!-- ListProfComponent -->
<g id="node11" class="node">
<title>ListProfComponent</title>
<polygon fill="#ffffb3" stroke="black" points="1743.72,-84.8 1616.28,-84.8 1616.28,-48.8 1743.72,-48.8 1743.72,-84.8"/>
<text text-anchor="middle" x="1680" y="-62.6" font-family="Times,serif" font-size="14.00">ListProfComponent</text>
</g>
<!-- ListProfComponent&#45;&gt;AdminModule -->
<g id="edge11" class="edge">
<title>ListProfComponent&#45;&gt;AdminModule</title>
<path fill="none" stroke="black" d="M1680,-85.11C1680,-104.95 1680,-133.8 1680,-133.8 1680,-133.8 1519.37,-133.8 1519.37,-133.8"/>
<polygon fill="black" stroke="black" points="1519.37,-130.3 1509.37,-133.8 1519.37,-137.3 1519.37,-130.3"/>
</g>
<!-- ListStaffComponent -->
<g id="node12" class="node">
<title>ListStaffComponent</title>
<polygon fill="#ffffb3" stroke="black" points="1598.32,-84.8 1467.68,-84.8 1467.68,-48.8 1598.32,-48.8 1598.32,-84.8"/>
<text text-anchor="middle" x="1533" y="-62.6" font-family="Times,serif" font-size="14.00">ListStaffComponent</text>
</g>
<!-- ListStaffComponent&#45;&gt;AdminModule -->
<g id="edge12" class="edge">
<title>ListStaffComponent&#45;&gt;AdminModule</title>
<path fill="none" stroke="black" d="M1488.53,-84.81C1488.53,-84.81 1488.53,-114.65 1488.53,-114.65"/>
<polygon fill="black" stroke="black" points="1485.03,-114.65 1488.53,-124.65 1492.03,-114.65 1485.03,-114.65"/>
</g>
<!-- MiniProfilComponent -->
<g id="node13" class="node">
<title>MiniProfilComponent</title>
<polygon fill="#ffffb3" stroke="black" points="2964.45,-84.8 2823.55,-84.8 2823.55,-48.8 2964.45,-48.8 2964.45,-84.8"/>
<text text-anchor="middle" x="2894" y="-62.6" font-family="Times,serif" font-size="14.00">MiniProfilComponent</text>
</g>
<!-- MiniProfilComponent&#45;&gt;AdminModule -->
<g id="edge13" class="edge">
<title>MiniProfilComponent&#45;&gt;AdminModule</title>
<path fill="none" stroke="black" d="M2894,-85.22C2894,-111.81 2894,-157.8 2894,-157.8 2894,-157.8 1519.36,-157.8 1519.36,-157.8"/>
<polygon fill="black" stroke="black" points="1519.36,-154.3 1509.36,-157.8 1519.36,-161.3 1519.36,-154.3"/>
</g>
<!-- MiniProfilComponent&#45;&gt;DoctorantModule -->
<g id="edge32" class="edge">
<title>MiniProfilComponent&#45;&gt;DoctorantModule</title>
<path fill="none" stroke="black" d="M2964.38,-66.8C2983.95,-66.8 2999.96,-66.8 2999.96,-66.8 2999.96,-66.8 2999.96,-114.79 2999.96,-114.79"/>
<polygon fill="black" stroke="black" points="2996.46,-114.79 2999.96,-124.79 3003.46,-114.79 2996.46,-114.79"/>
</g>
<!-- ResumeComponent -->
<g id="node14" class="node">
<title>ResumeComponent</title>
<polygon fill="#ffffb3" stroke="black" points="1306.44,-84.8 1179.56,-84.8 1179.56,-48.8 1306.44,-48.8 1306.44,-84.8"/>
<text text-anchor="middle" x="1243" y="-62.6" font-family="Times,serif" font-size="14.00">ResumeComponent</text>
</g>
<!-- ResumeComponent&#45;&gt;AdminModule -->
<g id="edge14" class="edge">
<title>ResumeComponent&#45;&gt;AdminModule</title>
<path fill="none" stroke="black" d="M1243,-85.07C1243,-103.36 1243,-128.8 1243,-128.8 1243,-128.8 1400.76,-128.8 1400.76,-128.8"/>
<polygon fill="black" stroke="black" points="1400.76,-132.3 1410.76,-128.8 1400.76,-125.3 1400.76,-132.3"/>
</g>
<!-- ScreenComponent -->
<g id="node15" class="node">
<title>ScreenComponent</title>
<polygon fill="#ffffb3" stroke="black" points="2805.92,-84.8 2686.08,-84.8 2686.08,-48.8 2805.92,-48.8 2805.92,-84.8"/>
<text text-anchor="middle" x="2746" y="-62.6" font-family="Times,serif" font-size="14.00">ScreenComponent</text>
</g>
<!-- ScreenComponent&#45;&gt;AdminModule -->
<g id="edge15" class="edge">
<title>ScreenComponent&#45;&gt;AdminModule</title>
<path fill="none" stroke="black" d="M2726.1,-85.03C2726.1,-110.81 2726.1,-154.8 2726.1,-154.8 2726.1,-154.8 1519.24,-154.8 1519.24,-154.8"/>
<polygon fill="black" stroke="black" points="1519.24,-151.3 1509.24,-154.8 1519.24,-158.3 1519.24,-151.3"/>
</g>
<!-- ScreenComponent&#45;&gt;DoctorantModule -->
<g id="edge33" class="edge">
<title>ScreenComponent&#45;&gt;DoctorantModule</title>
<path fill="none" stroke="black" d="M2765.9,-85.1C2765.9,-103.07 2765.9,-127.8 2765.9,-127.8 2765.9,-127.8 2986.39,-127.8 2986.39,-127.8"/>
<polygon fill="black" stroke="black" points="2986.39,-131.3 2996.39,-127.8 2986.39,-124.3 2986.39,-131.3"/>
</g>
<!-- SettingsComponent -->
<g id="node16" class="node">
<title>SettingsComponent</title>
<polygon fill="#ffffb3" stroke="black" points="980.45,-84.8 853.55,-84.8 853.55,-48.8 980.45,-48.8 980.45,-84.8"/>
<text text-anchor="middle" x="917" y="-62.6" font-family="Times,serif" font-size="14.00">SettingsComponent</text>
</g>
<!-- SettingsComponent&#45;&gt;AdminModule -->
<g id="edge16" class="edge">
<title>SettingsComponent&#45;&gt;AdminModule</title>
<path fill="none" stroke="black" d="M917,-84.83C917,-105.57 917,-136.8 917,-136.8 917,-136.8 1400.37,-136.8 1400.37,-136.8"/>
<polygon fill="black" stroke="black" points="1400.37,-140.3 1410.37,-136.8 1400.37,-133.3 1400.37,-140.3"/>
</g>
<!-- SidenavComponent -->
<g id="node17" class="node">
<title>SidenavComponent</title>
<polygon fill="#ffffb3" stroke="black" points="1450.44,-84.8 1323.56,-84.8 1323.56,-48.8 1450.44,-48.8 1450.44,-84.8"/>
<text text-anchor="middle" x="1387" y="-62.6" font-family="Times,serif" font-size="14.00">SidenavComponent</text>
</g>
<!-- SidenavComponent&#45;&gt;AdminModule -->
<g id="edge17" class="edge">
<title>SidenavComponent&#45;&gt;AdminModule</title>
<path fill="none" stroke="black" d="M1437.07,-84.81C1437.07,-84.81 1437.07,-114.65 1437.07,-114.65"/>
<polygon fill="black" stroke="black" points="1433.57,-114.65 1437.07,-124.65 1440.57,-114.65 1433.57,-114.65"/>
</g>
<!-- SidenavComponent&#45;&gt;AdminModule -->
<g id="edge18" class="edge">
<title>SidenavComponent&#45;&gt;AdminModule</title>
<path fill="none" stroke="black" d="M1423.93,-84.81C1423.93,-84.81 1423.93,-114.65 1423.93,-114.65"/>
<polygon fill="black" stroke="black" points="1420.43,-114.65 1423.93,-124.65 1427.43,-114.65 1420.43,-114.65"/>
</g>
<!-- SublevelMenuComponent -->
<g id="node18" class="node">
<title>SublevelMenuComponent</title>
<polygon fill="#ffffb3" stroke="black" points="1161.49,-84.8 998.51,-84.8 998.51,-48.8 1161.49,-48.8 1161.49,-84.8"/>
<text text-anchor="middle" x="1080" y="-62.6" font-family="Times,serif" font-size="14.00">SublevelMenuComponent</text>
</g>
<!-- SublevelMenuComponent&#45;&gt;AdminModule -->
<g id="edge19" class="edge">
<title>SublevelMenuComponent&#45;&gt;AdminModule</title>
<path fill="none" stroke="black" d="M1080,-84.83C1080,-104.38 1080,-132.8 1080,-132.8 1080,-132.8 1400.71,-132.8 1400.71,-132.8"/>
<polygon fill="black" stroke="black" points="1400.71,-136.3 1410.71,-132.8 1400.71,-129.3 1400.71,-136.3"/>
</g>
<!-- AdminRoutingModule -->
<g id="node20" class="node">
<title>AdminRoutingModule</title>
<polygon fill="#8dd3c7" stroke="black" points="167.56,-84.8 164.56,-88.8 143.56,-88.8 140.56,-84.8 24.44,-84.8 24.44,-48.8 167.56,-48.8 167.56,-84.8"/>
<text text-anchor="middle" x="96" y="-62.6" font-family="Times,serif" font-size="14.00">AdminRoutingModule</text>
</g>
<!-- AdminRoutingModule&#45;&gt;AdminModule -->
<g id="edge20" class="edge">
<title>AdminRoutingModule&#45;&gt;AdminModule</title>
<path fill="none" stroke="black" d="M96,-85.01C96,-111.31 96,-156.8 96,-156.8 96,-156.8 1400.65,-156.8 1400.65,-156.8"/>
<polygon fill="black" stroke="black" points="1400.65,-160.3 1410.65,-156.8 1400.65,-153.3 1400.65,-160.3"/>
</g>
<!-- AppComponent -->
<g id="node21" class="node">
<title>AppComponent</title>
<polygon fill="#ffffb3" stroke="black" points="3745.94,-160.8 3640.06,-160.8 3640.06,-124.8 3745.94,-124.8 3745.94,-160.8"/>
<text text-anchor="middle" x="3693" y="-138.6" font-family="Times,serif" font-size="14.00">AppComponent</text>
</g>
<!-- AppModule -->
<g id="node22" class="node">
<title>AppModule</title>
<polygon fill="#8dd3c7" stroke="black" points="3593.66,-225.8 3590.66,-229.8 3569.66,-229.8 3566.66,-225.8 3510.34,-225.8 3510.34,-189.8 3593.66,-189.8 3593.66,-225.8"/>
<text text-anchor="middle" x="3552" y="-203.6" font-family="Times,serif" font-size="14.00">AppModule</text>
</g>
<!-- AppComponent&#45;&gt;AppModule -->
<g id="edge21" class="edge">
<title>AppComponent&#45;&gt;AppModule</title>
<path fill="none" stroke="black" d="M3693,-160.91C3693,-180.14 3693,-207.8 3693,-207.8 3693,-207.8 3603.92,-207.8 3603.92,-207.8"/>
<polygon fill="black" stroke="black" points="3603.92,-204.3 3593.92,-207.8 3603.92,-211.3 3603.92,-204.3"/>
</g>
<!-- AppComponent  -->
<g id="node25" class="node">
<title>AppComponent </title>
<polygon fill="#80b1d3" stroke="black" points="3606.44,-293.8 3497.56,-293.8 3497.56,-257.8 3606.44,-257.8 3606.44,-293.8"/>
<text text-anchor="middle" x="3552" y="-271.6" font-family="Times,serif" font-size="14.00">AppComponent </text>
</g>
<!-- AppModule&#45;&gt;AppComponent  -->
<g id="edge24" class="edge">
<title>AppModule&#45;&gt;AppComponent </title>
<path fill="none" stroke="black" stroke-dasharray="1,5" d="M3552,-226.02C3552,-226.02 3552,-247.53 3552,-247.53"/>
<polygon fill="black" stroke="black" points="3548.5,-247.53 3552,-257.53 3555.5,-247.53 3548.5,-247.53"/>
</g>
<!-- AppRoutingModule -->
<g id="node23" class="node">
<title>AppRoutingModule</title>
<polygon fill="#8dd3c7" stroke="black" points="3616.28,-160.8 3613.28,-164.8 3592.28,-164.8 3589.28,-160.8 3487.72,-160.8 3487.72,-124.8 3616.28,-124.8 3616.28,-160.8"/>
<text text-anchor="middle" x="3552" y="-138.6" font-family="Times,serif" font-size="14.00">AppRoutingModule</text>
</g>
<!-- AppRoutingModule&#45;&gt;AppModule -->
<g id="edge22" class="edge">
<title>AppRoutingModule&#45;&gt;AppModule</title>
<path fill="none" stroke="black" d="M3552,-160.91C3552,-160.91 3552,-179.79 3552,-179.79"/>
<polygon fill="black" stroke="black" points="3548.5,-179.79 3552,-189.79 3555.5,-179.79 3548.5,-179.79"/>
</g>
<!-- CoreModule -->
<g id="node24" class="node">
<title>CoreModule</title>
<polygon fill="#8dd3c7" stroke="black" points="3469.27,-160.8 3466.27,-164.8 3445.27,-164.8 3442.27,-160.8 3382.73,-160.8 3382.73,-124.8 3469.27,-124.8 3469.27,-160.8"/>
<text text-anchor="middle" x="3426" y="-138.6" font-family="Times,serif" font-size="14.00">CoreModule</text>
</g>
<!-- CoreModule&#45;&gt;AppModule -->
<g id="edge23" class="edge">
<title>CoreModule&#45;&gt;AppModule</title>
<path fill="none" stroke="black" d="M3426,-160.91C3426,-180.14 3426,-207.8 3426,-207.8 3426,-207.8 3500.04,-207.8 3500.04,-207.8"/>
<polygon fill="black" stroke="black" points="3500.04,-211.3 3510.04,-207.8 3500.04,-204.3 3500.04,-211.3"/>
</g>
<!-- LoginComponent -->
<g id="node26" class="node">
<title>LoginComponent</title>
<polygon fill="#ffffb3" stroke="black" points="4196.27,-84.8 4081.73,-84.8 4081.73,-48.8 4196.27,-48.8 4196.27,-84.8"/>
<text text-anchor="middle" x="4139" y="-62.6" font-family="Times,serif" font-size="14.00">LoginComponent</text>
</g>
<!-- AuthModule -->
<g id="node29" class="node">
<title>AuthModule</title>
<polygon fill="#8dd3c7" stroke="black" points="4114.55,-160.8 4111.55,-164.8 4090.55,-164.8 4087.55,-160.8 4027.45,-160.8 4027.45,-124.8 4114.55,-124.8 4114.55,-160.8"/>
<text text-anchor="middle" x="4071" y="-138.6" font-family="Times,serif" font-size="14.00">AuthModule</text>
</g>
<!-- LoginComponent&#45;&gt;AuthModule -->
<g id="edge25" class="edge">
<title>LoginComponent&#45;&gt;AuthModule</title>
<path fill="none" stroke="black" d="M4098.19,-84.81C4098.19,-84.81 4098.19,-114.65 4098.19,-114.65"/>
<polygon fill="black" stroke="black" points="4094.69,-114.65 4098.19,-124.65 4101.69,-114.65 4094.69,-114.65"/>
</g>
<!-- LogoutComponent -->
<g id="node27" class="node">
<title>LogoutComponent</title>
<polygon fill="#ffffb3" stroke="black" points="4063.77,-84.8 3942.23,-84.8 3942.23,-48.8 4063.77,-48.8 4063.77,-84.8"/>
<text text-anchor="middle" x="4003" y="-62.6" font-family="Times,serif" font-size="14.00">LogoutComponent</text>
</g>
<!-- LogoutComponent&#45;&gt;AuthModule -->
<g id="edge26" class="edge">
<title>LogoutComponent&#45;&gt;AuthModule</title>
<path fill="none" stroke="black" d="M4045.56,-84.81C4045.56,-84.81 4045.56,-114.65 4045.56,-114.65"/>
<polygon fill="black" stroke="black" points="4042.06,-114.65 4045.56,-124.65 4049.06,-114.65 4042.06,-114.65"/>
</g>
<!-- SignupComponent -->
<g id="node28" class="node">
<title>SignupComponent</title>
<polygon fill="#ffffb3" stroke="black" points="4335.51,-84.8 4214.49,-84.8 4214.49,-48.8 4335.51,-48.8 4335.51,-84.8"/>
<text text-anchor="middle" x="4275" y="-62.6" font-family="Times,serif" font-size="14.00">SignupComponent</text>
</g>
<!-- SignupComponent&#45;&gt;AuthModule -->
<g id="edge27" class="edge">
<title>SignupComponent&#45;&gt;AuthModule</title>
<path fill="none" stroke="black" d="M4275,-84.83C4275,-109.78 4275,-151.8 4275,-151.8 4275,-151.8 4124.76,-151.8 4124.76,-151.8"/>
<polygon fill="black" stroke="black" points="4124.76,-148.3 4114.76,-151.8 4124.76,-155.3 4124.76,-148.3"/>
</g>
<!-- AuthRoutingModule -->
<g id="node30" class="node">
<title>AuthRoutingModule</title>
<polygon fill="#8dd3c7" stroke="black" points="3918.17,-84.8 3915.17,-88.8 3894.17,-88.8 3891.17,-84.8 3785.83,-84.8 3785.83,-48.8 3918.17,-48.8 3918.17,-84.8"/>
<text text-anchor="middle" x="3852" y="-62.6" font-family="Times,serif" font-size="14.00">AuthRoutingModule</text>
</g>
<!-- AuthRoutingModule&#45;&gt;AuthModule -->
<g id="edge28" class="edge">
<title>AuthRoutingModule&#45;&gt;AuthModule</title>
<path fill="none" stroke="black" d="M3852,-84.81C3852,-107.29 3852,-142.8 3852,-142.8 3852,-142.8 4017.21,-142.8 4017.21,-142.8"/>
<polygon fill="black" stroke="black" points="4017.21,-146.3 4027.21,-142.8 4017.21,-139.3 4017.21,-146.3"/>
</g>
<!-- CoreRoutingModule -->
<g id="node31" class="node">
<title>CoreRoutingModule</title>
<polygon fill="#8dd3c7" stroke="black" points="3491.88,-84.8 3488.88,-88.8 3467.88,-88.8 3464.88,-84.8 3360.12,-84.8 3360.12,-48.8 3491.88,-48.8 3491.88,-84.8"/>
<text text-anchor="middle" x="3426" y="-62.6" font-family="Times,serif" font-size="14.00">CoreRoutingModule</text>
</g>
<!-- CoreRoutingModule&#45;&gt;CoreModule -->
<g id="edge29" class="edge">
<title>CoreRoutingModule&#45;&gt;CoreModule</title>
<path fill="none" stroke="black" d="M3426,-84.81C3426,-84.81 3426,-114.65 3426,-114.65"/>
<polygon fill="black" stroke="black" points="3422.5,-114.65 3426,-124.65 3429.5,-114.65 3422.5,-114.65"/>
</g>
<!-- CalendarComponent -->
<g id="node32" class="node">
<title>CalendarComponent</title>
<polygon fill="#ffffb3" stroke="black" points="3319.86,-84.8 3188.14,-84.8 3188.14,-48.8 3319.86,-48.8 3319.86,-84.8"/>
<text text-anchor="middle" x="3254" y="-62.6" font-family="Times,serif" font-size="14.00">CalendarComponent</text>
</g>
<!-- CalendarComponent&#45;&gt;DoctorantModule -->
<g id="edge31" class="edge">
<title>CalendarComponent&#45;&gt;DoctorantModule</title>
<path fill="none" stroke="black" d="M3254,-84.81C3254,-107.29 3254,-142.8 3254,-142.8 3254,-142.8 3121.58,-142.8 3121.58,-142.8"/>
<polygon fill="black" stroke="black" points="3121.58,-139.3 3111.58,-142.8 3121.58,-146.3 3121.58,-139.3"/>
</g>
<!-- DoctorantRoutingModule -->
<g id="node34" class="node">
<title>DoctorantRoutingModule</title>
<polygon fill="#8dd3c7" stroke="black" points="3164.15,-84.8 3161.15,-88.8 3140.15,-88.8 3137.15,-84.8 3003.85,-84.8 3003.85,-48.8 3164.15,-48.8 3164.15,-84.8"/>
<text text-anchor="middle" x="3084" y="-62.6" font-family="Times,serif" font-size="14.00">DoctorantRoutingModule</text>
</g>
<!-- DoctorantRoutingModule&#45;&gt;DoctorantModule -->
<g id="edge34" class="edge">
<title>DoctorantRoutingModule&#45;&gt;DoctorantModule</title>
<path fill="none" stroke="black" d="M3057.72,-84.81C3057.72,-84.81 3057.72,-114.65 3057.72,-114.65"/>
<polygon fill="black" stroke="black" points="3054.22,-114.65 3057.72,-124.65 3061.22,-114.65 3054.22,-114.65"/>
</g>
<!-- AboutComponent -->
<g id="node35" class="node">
<title>AboutComponent</title>
<polygon fill="#ffffb3" stroke="black" points="4656.33,-84.8 4539.67,-84.8 4539.67,-48.8 4656.33,-48.8 4656.33,-84.8"/>
<text text-anchor="middle" x="4598" y="-62.6" font-family="Times,serif" font-size="14.00">AboutComponent</text>
</g>
<!-- PublicModule -->
<g id="node40" class="node">
<title>PublicModule</title>
<polygon fill="#8dd3c7" stroke="black" points="4860.83,-160.8 4857.83,-164.8 4836.83,-164.8 4833.83,-160.8 4765.17,-160.8 4765.17,-124.8 4860.83,-124.8 4860.83,-160.8"/>
<text text-anchor="middle" x="4813" y="-138.6" font-family="Times,serif" font-size="14.00">PublicModule</text>
</g>
<!-- AboutComponent&#45;&gt;PublicModule -->
<g id="edge35" class="edge">
<title>AboutComponent&#45;&gt;PublicModule</title>
<path fill="none" stroke="black" d="M4598,-85.11C4598,-104.95 4598,-133.8 4598,-133.8 4598,-133.8 4755.28,-133.8 4755.28,-133.8"/>
<polygon fill="black" stroke="black" points="4755.28,-137.3 4765.28,-133.8 4755.28,-130.3 4755.28,-137.3"/>
</g>
<!-- FooterComponent -->
<g id="node36" class="node">
<title>FooterComponent</title>
<polygon fill="#ffffb3" stroke="black" points="5238.88,-84.8 5121.12,-84.8 5121.12,-48.8 5238.88,-48.8 5238.88,-84.8"/>
<text text-anchor="middle" x="5180" y="-62.6" font-family="Times,serif" font-size="14.00">FooterComponent</text>
</g>
<!-- FooterComponent&#45;&gt;PublicModule -->
<g id="edge36" class="edge">
<title>FooterComponent&#45;&gt;PublicModule</title>
<path fill="none" stroke="black" d="M5180,-85C5180,-109.16 5180,-148.8 5180,-148.8 5180,-148.8 4870.98,-148.8 4870.98,-148.8"/>
<polygon fill="black" stroke="black" points="4870.98,-145.3 4860.98,-148.8 4870.98,-152.3 4870.98,-145.3"/>
</g>
<!-- HomeComponent -->
<g id="node37" class="node">
<title>HomeComponent</title>
<polygon fill="#ffffb3" stroke="black" points="5102.55,-84.8 4987.45,-84.8 4987.45,-48.8 5102.55,-48.8 5102.55,-84.8"/>
<text text-anchor="middle" x="5045" y="-62.6" font-family="Times,serif" font-size="14.00">HomeComponent</text>
</g>
<!-- HomeComponent&#45;&gt;PublicModule -->
<g id="edge37" class="edge">
<title>HomeComponent&#45;&gt;PublicModule</title>
<path fill="none" stroke="black" d="M5045,-84.83C5045,-105.57 5045,-136.8 5045,-136.8 5045,-136.8 4870.79,-136.8 4870.79,-136.8"/>
<polygon fill="black" stroke="black" points="4870.79,-133.3 4860.79,-136.8 4870.79,-140.3 4870.79,-133.3"/>
</g>
<!-- LandingPageComponent -->
<g id="node38" class="node">
<title>LandingPageComponent</title>
<polygon fill="#ffffb3" stroke="black" points="4969.7,-84.8 4814.3,-84.8 4814.3,-48.8 4969.7,-48.8 4969.7,-84.8"/>
<text text-anchor="middle" x="4892" y="-62.6" font-family="Times,serif" font-size="14.00">LandingPageComponent</text>
</g>
<!-- LandingPageComponent&#45;&gt;PublicModule -->
<g id="edge38" class="edge">
<title>LandingPageComponent&#45;&gt;PublicModule</title>
<path fill="none" stroke="black" d="M4837.53,-84.81C4837.53,-84.81 4837.53,-114.65 4837.53,-114.65"/>
<polygon fill="black" stroke="black" points="4834.03,-114.65 4837.53,-124.65 4841.03,-114.65 4834.03,-114.65"/>
</g>
<!-- NavbarComponent -->
<g id="node39" class="node">
<title>NavbarComponent</title>
<polygon fill="#ffffb3" stroke="black" points="4796.03,-84.8 4673.97,-84.8 4673.97,-48.8 4796.03,-48.8 4796.03,-84.8"/>
<text text-anchor="middle" x="4735" y="-62.6" font-family="Times,serif" font-size="14.00">NavbarComponent</text>
</g>
<!-- NavbarComponent&#45;&gt;PublicModule -->
<g id="edge39" class="edge">
<title>NavbarComponent&#45;&gt;PublicModule</title>
<path fill="none" stroke="black" d="M4780.8,-84.81C4780.8,-84.81 4780.8,-114.65 4780.8,-114.65"/>
<polygon fill="black" stroke="black" points="4777.3,-114.65 4780.8,-124.65 4784.3,-114.65 4777.3,-114.65"/>
</g>
<!-- NavbarComponent  -->
<g id="node42" class="node">
<title>NavbarComponent </title>
<polygon fill="#fb8072" stroke="black" points="4876.03,-225.8 4749.97,-225.8 4749.97,-189.8 4876.03,-189.8 4876.03,-225.8"/>
<text text-anchor="middle" x="4813" y="-203.6" font-family="Times,serif" font-size="14.00">NavbarComponent </text>
</g>
<!-- PublicModule&#45;&gt;NavbarComponent  -->
<g id="edge41" class="edge">
<title>PublicModule&#45;&gt;NavbarComponent </title>
<path fill="none" stroke="black" stroke-dasharray="5,2" d="M4813,-160.91C4813,-160.91 4813,-179.79 4813,-179.79"/>
<polygon fill="black" stroke="black" points="4809.5,-179.79 4813,-189.79 4816.5,-179.79 4809.5,-179.79"/>
</g>
<!-- PublicRoutingModule -->
<g id="node41" class="node">
<title>PublicRoutingModule</title>
<polygon fill="#8dd3c7" stroke="black" points="4516.45,-84.8 4513.45,-88.8 4492.45,-88.8 4489.45,-84.8 4375.55,-84.8 4375.55,-48.8 4516.45,-48.8 4516.45,-84.8"/>
<text text-anchor="middle" x="4446" y="-62.6" font-family="Times,serif" font-size="14.00">PublicRoutingModule</text>
</g>
<!-- PublicRoutingModule&#45;&gt;PublicModule -->
<g id="edge40" class="edge">
<title>PublicRoutingModule&#45;&gt;PublicModule</title>
<path fill="none" stroke="black" d="M4446,-84.81C4446,-107.29 4446,-142.8 4446,-142.8 4446,-142.8 4755.02,-142.8 4755.02,-142.8"/>
<polygon fill="black" stroke="black" points="4755.02,-146.3 4765.02,-142.8 4755.02,-139.3 4755.02,-146.3"/>
</g>
</g>
</svg>
